<?xml version="1.0" encoding="UTF-8"?>
<svg data-name="Layer 1" viewBox="0 0 1010 770.56" xmlns="http://www.w3.org/2000/svg">
<circle cx="144.27" cy="391" r="64" fill="#ff6584"/>
<path transform="translate(-95 -64.718)" d="m370.34 817.22h-0.06494a8.5096 8.5096 0 0 1-8.5-8.5v-499a8.5096 8.5096 0 0 1 8.5-8.5h420a8.5095 8.5095 0 0 1 8.5 8.5v388a8.5092 8.5092 0 0 1-8.4341 8.4995z" fill="#f2f2f2"/>
<path transform="translate(-95 -64.718)" d="m680.77 230.72h-195v-113a9.0103 9.0103 0 0 1 9-9h177a9.0103 9.0103 0 0 1 9 9zm-193-2h191v-111a7.0079 7.0079 0 0 0-7-7h-177a7.0079 7.0079 0 0 0-7 7z" fill="#3f3d56"/>
<path d="m446.27 87h84a8 8 0 0 1 8 8v120h-100v-120a8 8 0 0 1 8-8z" fill="#e6e6e6"/>
<path transform="translate(-95 -64.718)" d="m557.77 110.72h-41v-41a5.0057 5.0057 0 0 1 5-5h31a5.0057 5.0057 0 0 1 5 5zm-39-2h37v-39a3.0033 3.0033 0 0 0-3-3h-31a3.0033 3.0033 0 0 0-3 3z" fill="#3f3d56"/>
<path transform="translate(-95 -64.718)" d="m894.68 713.56c-0.39868 0-0.78662 0-1.1853-0.01026a101.52 101.52 0 0 1-66.895-26.147q-1.0188-0.92726-2.0208-1.8789l-0.30957-0.29541v-191.65l0.09546-0.20264c0.66187-1.4033 1.3335-2.7866 2.0049-4.1699 20.8-42.229 45.059-65.483 68.31-65.483 33.53 0 59.533 45.994 72.05 73.41 17.405 38.124 29.56 85.364 29.56 114.88a101.58 101.58 0 0 1-100.45 101.54c-0.37351 0.00981-0.77243 0.00981-1.1609 0.00981zm-68.41-29.189c0.554 0.52344 1.1135 1.04 1.6731 1.5498a99.531 99.531 0 0 0 65.588 25.629c0.405 0.00977 0.78809-1e-3 1.1755 0.00977 0.363 0 0.7351 0 1.0979-0.00928 54.312-0.60254 98.486-45.256 98.486-99.541 0-29.26-12.081-76.159-29.38-114.05-12.317-26.98-37.819-72.24-70.23-72.24-22.448 0-46.07 22.857-66.513 64.362-0.63355 1.3052-1.2693 2.6152-1.897 3.9424z" fill="#3f3d56"/>
<path transform="translate(-95 -64.718)" d="m894.68 834.81a1.1506 1.1506 0 0 1-1.1505-1.1505v-234.87a1.1505 1.1505 0 1 1 2.301 0v234.87a1.1506 1.1506 0 0 1-1.1505 1.1505z" fill="#ccc"/>
<path transform="translate(-95 -64.718)" d="m297.68 834.81a1.1506 1.1506 0 0 1-1.1505-1.1505v-234.87a1.1505 1.1505 0 1 1 2.301 0v234.87a1.1506 1.1506 0 0 1-1.1505 1.1505z" fill="#ccc"/>
<path transform="translate(-95 -64.718)" d="m894.68 642.67a1.1479 1.1479 0 0 1-0.86991-0.39661l-57.864-66.73a1.1507 1.1507 0 0 1 1.7387-1.5078l57.864 66.73a1.1508 1.1508 0 0 1-0.86879 1.9044z" fill="#ccc"/>
<path transform="translate(-95 -64.718)" d="m894.68 681.18a1.1505 1.1505 0 0 1-0.81345-1.964l32.879-32.88a1.1504 1.1504 0 0 1 1.6269 1.6269l-32.879 32.88a1.1463 1.1463 0 0 1-0.8135 0.33705z" fill="#ccc"/>
<path transform="translate(-95 -64.718)" d="m1001.1 835.28h-86.005v-1a43.003 43.003 0 1 1 86.005 0zm-83.993-2h81.981a41.003 41.003 0 0 0-81.981 0z" fill="#3f3d56"/>
<path transform="translate(-95 -64.718)" d="m958.12 809.87a1.1353 1.1353 0 0 0-1.1352 1.1352v12.06l-11.748-10.083a1.1353 1.1353 0 1 0-1.479 1.7228l13.227 11.352v7.0849a1.1353 1.1353 0 1 0 2.2705 0v-22.136a1.1353 1.1353 0 0 0-1.1352-1.1352z" fill="#3f3d56"/>
<path transform="translate(-95 -64.718)" d="m280.12 835.28h-86.005v-1a43.003 43.003 0 1 1 86.005 0zm-83.993-2h81.981a41.003 41.003 0 0 0-81.981 0z" fill="#3f3d56"/>
<path transform="translate(-95 -64.718)" d="m237.12 809.87a1.1353 1.1353 0 0 0-1.1352 1.1352v12.06l-11.748-10.083a1.1353 1.1353 0 1 0-1.479 1.7228l13.227 11.352v7.0849a1.1353 1.1353 0 1 0 2.2705 0v-22.136a1.1353 1.1353 0 0 0-1.1352-1.1352z" fill="#3f3d56"/>
<path transform="translate(-95 -64.718)" d="m298.68 713.56c-0.39856 0-0.78662 0-1.1852-0.01026a101.58 101.58 0 0 1-100.43-101.54c0-29.517 12.156-76.757 29.562-114.88 12.517-27.416 38.523-73.41 72.059-73.41 13.813 0 27.722 7.873 41.342 23.401 0.6753 0.76563 1.3522 1.5542 2.0194 2.3623l0.22876 0.27734v253.99l-0.564 0.27295c-0.673 0.32617-1.3558 0.63232-2.0387 0.92773a100.61 100.61 0 0 1-39.827 8.6025c-0.37341 0.00977-0.77229 0.00977-1.1606 0.00977zm0-287.84c-32.417 0-57.922 45.261-70.239 72.24-17.299 37.89-29.381 84.789-29.381 114.05 0 54.275 44.174 98.928 98.471 99.54 0.40455 0.01025 0.782 0.01318 1.1753 0.00977 0.363 0 0.73523 0 1.0979-0.00928a98.656 98.656 0 0 0 39.061-8.4351c0.47192-0.20459 0.9403-0.41211 1.4043-0.62793v-252.01c-0.579-0.69531-1.1646-1.375-1.75-2.0396-13.225-15.077-26.628-22.721-39.84-22.721z" fill="#3f3d56"/>
<path transform="translate(-95 -64.718)" d="m298.68 642.67a1.1479 1.1479 0 0 1-0.86991-0.39661l-57.864-66.73a1.1507 1.1507 0 0 1 1.7387-1.5078l57.864 66.73a1.1508 1.1508 0 0 1-0.86879 1.9044z" fill="#ccc"/>
<path transform="translate(-95 -64.718)" d="m298.68 681.18a1.1505 1.1505 0 0 1-0.81345-1.964l32.879-32.88a1.1504 1.1504 0 0 1 1.6269 1.6269l-32.879 32.88a1.1463 1.1463 0 0 1-0.8135 0.33705z" fill="#ccc"/>
<path transform="translate(-95 -64.718)" d="m389.03 238.72 0.74023 1.46a4.4232 4.4232 0 0 1 0.5 2.04v39.5h35v-39.5a4.4233 4.4233 0 0 1 0.5-2.04l0.74024-1.46zm34.24 3.5v37.5h-31v-37.5a6.2774 6.2774 0 0 0-0.18017-1.5h31.36a6.2769 6.2769 0 0 0-0.18018 1.5zm9.7598-3.5 0.74023 1.46a4.4232 4.4232 0 0 1 0.5 2.04v39.5h35v-39.5a4.4233 4.4233 0 0 1 0.5-2.04l0.74024-1.46zm34.24 3.5v37.5h-31v-37.5a6.2774 6.2774 0 0 0-0.18017-1.5h31.36a6.2769 6.2769 0 0 0-0.18018 1.5zm9.7598-3.5 0.74023 1.46a4.4232 4.4232 0 0 1 0.5 2.04v39.5h35v-39.5a4.4233 4.4233 0 0 1 0.5-2.04l0.74024-1.46zm34.24 3.5v37.5h-31v-37.5a6.2774 6.2774 0 0 0-0.18017-1.5h31.36a6.2769 6.2769 0 0 0-0.18018 1.5zm9.7598-3.5 0.74023 1.46a4.4232 4.4232 0 0 1 0.5 2.04v39.5h35v-39.5a4.4233 4.4233 0 0 1 0.5-2.04l0.74024-1.46zm34.24 3.5v37.5h-31v-37.5a6.2774 6.2774 0 0 0-0.18017-1.5h31.36a6.2769 6.2769 0 0 0-0.18018 1.5zm9.7598-3.5 0.74023 1.46a4.4232 4.4232 0 0 1 0.5 2.04v39.5h35v-39.5a4.4233 4.4233 0 0 1 0.5-2.04l0.74024-1.46zm34.24 3.5v37.5h-31v-37.5a6.2774 6.2774 0 0 0-0.18017-1.5h31.36a6.2769 6.2769 0 0 0-0.18018 1.5zm9.7598-3.5 0.74023 1.46a4.4232 4.4232 0 0 1 0.5 2.04v39.5h35v-39.5a4.4233 4.4233 0 0 1 0.5-2.04l0.74024-1.46zm34.24 3.5v37.5h-31v-37.5a6.2774 6.2774 0 0 0-0.18017-1.5h31.36a6.2769 6.2769 0 0 0-0.18018 1.5zm9.7598-3.5 0.74023 1.46a4.4232 4.4232 0 0 1 0.5 2.04v39.5h35v-39.5a4.4233 4.4233 0 0 1 0.5-2.04l0.74024-1.46zm34.24 3.5v37.5h-31v-37.5a6.2774 6.2774 0 0 0-0.18017-1.5h31.36a6.2769 6.2769 0 0 0-0.18018 1.5zm9.7598-3.5 0.74023 1.46a4.4232 4.4232 0 0 1 0.5 2.04v39.5h35v-39.5a4.4233 4.4233 0 0 1 0.5-2.04l0.74024-1.46zm34.24 3.5v37.5h-31v-37.5a6.2774 6.2774 0 0 0-0.18017-1.5h31.36a6.2769 6.2769 0 0 0-0.18018 1.5zm9.7598-3.5 0.74023 1.46a4.4232 4.4232 0 0 1 0.5 2.04v39.5h35v-39.5a4.4233 4.4233 0 0 1 0.5-2.04l0.74024-1.46zm34.24 3.5v37.5h-31v-37.5a6.2774 6.2774 0 0 0-0.18017-1.5h31.36a6.2769 6.2769 0 0 0-0.18018 1.5zm-34.24-3.5 0.74023 1.46a4.4232 4.4232 0 0 1 0.5 2.04v39.5h35v-39.5a4.4233 4.4233 0 0 1 0.5-2.04l0.74024-1.46zm34.24 3.5v37.5h-31v-37.5a6.2774 6.2774 0 0 0-0.18017-1.5h31.36a6.2769 6.2769 0 0 0-0.18018 1.5zm-78.24-3.5 0.74023 1.46a4.4232 4.4232 0 0 1 0.5 2.04v39.5h35v-39.5a4.4233 4.4233 0 0 1 0.5-2.04l0.74024-1.46zm34.24 3.5v37.5h-31v-37.5a6.2774 6.2774 0 0 0-0.18017-1.5h31.36a6.2769 6.2769 0 0 0-0.18018 1.5zm-78.24-3.5 0.74023 1.46a4.4232 4.4232 0 0 1 0.5 2.04v39.5h35v-39.5a4.4233 4.4233 0 0 1 0.5-2.04l0.74024-1.46zm34.24 3.5v37.5h-31v-37.5a6.2774 6.2774 0 0 0-0.18017-1.5h31.36a6.2769 6.2769 0 0 0-0.18018 1.5zm-78.24-3.5 0.74023 1.46a4.4232 4.4232 0 0 1 0.5 2.04v39.5h35v-39.5a4.4233 4.4233 0 0 1 0.5-2.04l0.74024-1.46zm34.24 3.5v37.5h-31v-37.5a6.2774 6.2774 0 0 0-0.18017-1.5h31.36a6.2769 6.2769 0 0 0-0.18018 1.5zm-78.24-3.5 0.74023 1.46a4.4232 4.4232 0 0 1 0.5 2.04v39.5h35v-39.5a4.4233 4.4233 0 0 1 0.5-2.04l0.74024-1.46zm34.24 3.5v37.5h-31v-37.5a6.2774 6.2774 0 0 0-0.18017-1.5h31.36a6.2769 6.2769 0 0 0-0.18018 1.5zm-78.24-3.5 0.74023 1.46a4.4232 4.4232 0 0 1 0.5 2.04v39.5h35v-39.5a4.4233 4.4233 0 0 1 0.5-2.04l0.74024-1.46zm34.24 3.5v37.5h-31v-37.5a6.2774 6.2774 0 0 0-0.18017-1.5h31.36a6.2769 6.2769 0 0 0-0.18018 1.5zm-78.24-3.5 0.74023 1.46a4.4232 4.4232 0 0 1 0.5 2.04v39.5h35v-39.5a4.4233 4.4233 0 0 1 0.5-2.04l0.74024-1.46zm34.24 3.5v37.5h-31v-37.5a6.2774 6.2774 0 0 0-0.18017-1.5h31.36a6.2769 6.2769 0 0 0-0.18018 1.5zm-78.24-3.5 0.74023 1.46a4.4232 4.4232 0 0 1 0.5 2.04v39.5h35v-39.5a4.4233 4.4233 0 0 1 0.5-2.04l0.74024-1.46zm34.24 3.5v37.5h-31v-37.5a6.2774 6.2774 0 0 0-0.18017-1.5h31.36a6.2769 6.2769 0 0 0-0.18018 1.5zm-78.24-3.5 0.74023 1.46a4.4232 4.4232 0 0 1 0.5 2.04v39.5h35v-39.5a4.4233 4.4233 0 0 1 0.5-2.04l0.74024-1.46zm34.24 3.5v37.5h-31v-37.5a6.2774 6.2774 0 0 0-0.18017-1.5h31.36a6.2769 6.2769 0 0 0-0.18018 1.5zm317.76-3.5 0.74023 1.46a4.4232 4.4232 0 0 1 0.5 2.04v39.5h35v-39.5a4.4233 4.4233 0 0 1 0.5-2.04l0.74024-1.46zm34.24 3.5v37.5h-31v-37.5a6.2774 6.2774 0 0 0-0.18017-1.5h31.36a6.2769 6.2769 0 0 0-0.18018 1.5zm-78.24-3.5 0.74023 1.46a4.4232 4.4232 0 0 1 0.5 2.04v39.5h35v-39.5a4.4233 4.4233 0 0 1 0.5-2.04l0.74024-1.46zm34.24 3.5v37.5h-31v-37.5a6.2774 6.2774 0 0 0-0.18017-1.5h31.36a6.2769 6.2769 0 0 0-0.18018 1.5zm-78.24-3.5 0.74023 1.46a4.4232 4.4232 0 0 1 0.5 2.04v39.5h35v-39.5a4.4233 4.4233 0 0 1 0.5-2.04l0.74024-1.46zm34.24 3.5v37.5h-31v-37.5a6.2774 6.2774 0 0 0-0.18017-1.5h31.36a6.2769 6.2769 0 0 0-0.18018 1.5zm-78.24-3.5 0.74023 1.46a4.4232 4.4232 0 0 1 0.5 2.04v39.5h35v-39.5a4.4233 4.4233 0 0 1 0.5-2.04l0.74024-1.46zm34.24 3.5v37.5h-31v-37.5a6.2774 6.2774 0 0 0-0.18017-1.5h31.36a6.2769 6.2769 0 0 0-0.18018 1.5zm-78.24-3.5 0.74023 1.46a4.4232 4.4232 0 0 1 0.5 2.04v39.5h35v-39.5a4.4233 4.4233 0 0 1 0.5-2.04l0.74024-1.46zm34.24 3.5v37.5h-31v-37.5a6.2774 6.2774 0 0 0-0.18017-1.5h31.36a6.2769 6.2769 0 0 0-0.18018 1.5zm-78.24-3.5 0.74023 1.46a4.4232 4.4232 0 0 1 0.5 2.04v39.5h35v-39.5a4.4233 4.4233 0 0 1 0.5-2.04l0.74024-1.46zm34.24 3.5v37.5h-31v-37.5a6.2774 6.2774 0 0 0-0.18017-1.5h31.36a6.2769 6.2769 0 0 0-0.18018 1.5zm-78.24-3.5 0.74023 1.46a4.4232 4.4232 0 0 1 0.5 2.04v39.5h35v-39.5a4.4233 4.4233 0 0 1 0.5-2.04l0.74024-1.46zm34.24 3.5v37.5h-31v-37.5a6.2774 6.2774 0 0 0-0.18017-1.5h31.36a6.2769 6.2769 0 0 0-0.18018 1.5zm-78.24-3.5 0.74023 1.46a4.4232 4.4232 0 0 1 0.5 2.04v39.5h35v-39.5a4.4233 4.4233 0 0 1 0.5-2.04l0.74024-1.46zm34.24 3.5v37.5h-31v-37.5a6.2774 6.2774 0 0 0-0.18017-1.5h31.36a6.2769 6.2769 0 0 0-0.18018 1.5zm-78.24-3.5 0.74023 1.46a4.4232 4.4232 0 0 1 0.5 2.04v39.5h35v-39.5a4.4233 4.4233 0 0 1 0.5-2.04l0.74024-1.46zm34.24 3.5v37.5h-31v-37.5a6.2774 6.2774 0 0 0-0.18017-1.5h31.36a6.2769 6.2769 0 0 0-0.18018 1.5zm317.76-3.5 0.74023 1.46a4.4232 4.4232 0 0 1 0.5 2.04v39.5h35v-39.5a4.4233 4.4233 0 0 1 0.5-2.04l0.74024-1.46zm34.24 3.5v37.5h-31v-37.5a6.2774 6.2774 0 0 0-0.18017-1.5h31.36a6.2769 6.2769 0 0 0-0.18018 1.5zm-78.24-3.5 0.74023 1.46a4.4232 4.4232 0 0 1 0.5 2.04v39.5h35v-39.5a4.4233 4.4233 0 0 1 0.5-2.04l0.74024-1.46zm34.24 3.5v37.5h-31v-37.5a6.2774 6.2774 0 0 0-0.18017-1.5h31.36a6.2769 6.2769 0 0 0-0.18018 1.5zm-78.24-3.5 0.74023 1.46a4.4232 4.4232 0 0 1 0.5 2.04v39.5h35v-39.5a4.4233 4.4233 0 0 1 0.5-2.04l0.74024-1.46zm34.24 3.5v37.5h-31v-37.5a6.2774 6.2774 0 0 0-0.18017-1.5h31.36a6.2769 6.2769 0 0 0-0.18018 1.5zm-78.24-3.5 0.74023 1.46a4.4232 4.4232 0 0 1 0.5 2.04v39.5h35v-39.5a4.4233 4.4233 0 0 1 0.5-2.04l0.74024-1.46zm34.24 3.5v37.5h-31v-37.5a6.2774 6.2774 0 0 0-0.18017-1.5h31.36a6.2769 6.2769 0 0 0-0.18018 1.5zm-78.24-3.5 0.74023 1.46a4.4232 4.4232 0 0 1 0.5 2.04v39.5h35v-39.5a4.4233 4.4233 0 0 1 0.5-2.04l0.74024-1.46zm34.24 3.5v37.5h-31v-37.5a6.2774 6.2774 0 0 0-0.18017-1.5h31.36a6.2769 6.2769 0 0 0-0.18018 1.5zm-78.24-3.5 0.74023 1.46a4.4232 4.4232 0 0 1 0.5 2.04v39.5h35v-39.5a4.4233 4.4233 0 0 1 0.5-2.04l0.74024-1.46zm34.24 3.5v37.5h-31v-37.5a6.2774 6.2774 0 0 0-0.18017-1.5h31.36a6.2769 6.2769 0 0 0-0.18018 1.5zm-78.24-3.5 0.74023 1.46a4.4232 4.4232 0 0 1 0.5 2.04v39.5h35v-39.5a4.4233 4.4233 0 0 1 0.5-2.04l0.74024-1.46zm34.24 3.5v37.5h-31v-37.5a6.2774 6.2774 0 0 0-0.18017-1.5h31.36a6.2769 6.2769 0 0 0-0.18018 1.5zm-78.24-3.5 0.74023 1.46a4.4232 4.4232 0 0 1 0.5 2.04v39.5h35v-39.5a4.4233 4.4233 0 0 1 0.5-2.04l0.74024-1.46zm34.24 3.5v37.5h-31v-37.5a6.2774 6.2774 0 0 0-0.18017-1.5h31.36a6.2769 6.2769 0 0 0-0.18018 1.5zm-78.24-3.5 0.74023 1.46a4.4232 4.4232 0 0 1 0.5 2.04v39.5h35v-39.5a4.4233 4.4233 0 0 1 0.5-2.04l0.74024-1.46zm34.24 3.5v37.5h-31v-37.5a6.2774 6.2774 0 0 0-0.18017-1.5h31.36a6.2769 6.2769 0 0 0-0.18018 1.5zm317.76-3.5 0.74023 1.46a4.4232 4.4232 0 0 1 0.5 2.04v39.5h35v-39.5a4.4233 4.4233 0 0 1 0.5-2.04l0.74024-1.46zm34.24 3.5v37.5h-31v-37.5a6.2774 6.2774 0 0 0-0.18017-1.5h31.36a6.2769 6.2769 0 0 0-0.18018 1.5zm-78.24-3.5 0.74023 1.46a4.4232 4.4232 0 0 1 0.5 2.04v39.5h35v-39.5a4.4233 4.4233 0 0 1 0.5-2.04l0.74024-1.46zm34.24 3.5v37.5h-31v-37.5a6.2774 6.2774 0 0 0-0.18017-1.5h31.36a6.2769 6.2769 0 0 0-0.18018 1.5zm-78.24-3.5 0.74023 1.46a4.4232 4.4232 0 0 1 0.5 2.04v39.5h35v-39.5a4.4233 4.4233 0 0 1 0.5-2.04l0.74024-1.46zm34.24 3.5v37.5h-31v-37.5a6.2774 6.2774 0 0 0-0.18017-1.5h31.36a6.2769 6.2769 0 0 0-0.18018 1.5zm-78.24-3.5 0.74023 1.46a4.4232 4.4232 0 0 1 0.5 2.04v39.5h35v-39.5a4.4233 4.4233 0 0 1 0.5-2.04l0.74024-1.46zm34.24 3.5v37.5h-31v-37.5a6.2774 6.2774 0 0 0-0.18017-1.5h31.36a6.2769 6.2769 0 0 0-0.18018 1.5zm-78.24-3.5 0.74023 1.46a4.4232 4.4232 0 0 1 0.5 2.04v39.5h35v-39.5a4.4233 4.4233 0 0 1 0.5-2.04l0.74024-1.46zm34.24 3.5v37.5h-31v-37.5a6.2774 6.2774 0 0 0-0.18017-1.5h31.36a6.2769 6.2769 0 0 0-0.18018 1.5zm-78.24-3.5 0.74023 1.46a4.4232 4.4232 0 0 1 0.5 2.04v39.5h35v-39.5a4.4233 4.4233 0 0 1 0.5-2.04l0.74024-1.46zm34.24 3.5v37.5h-31v-37.5a6.2774 6.2774 0 0 0-0.18017-1.5h31.36a6.2769 6.2769 0 0 0-0.18018 1.5zm-78.24-3.5 0.74023 1.46a4.4232 4.4232 0 0 1 0.5 2.04v39.5h35v-39.5a4.4233 4.4233 0 0 1 0.5-2.04l0.74024-1.46zm34.24 3.5v37.5h-31v-37.5a6.2774 6.2774 0 0 0-0.18017-1.5h31.36a6.2769 6.2769 0 0 0-0.18018 1.5zm-78.24-3.5 0.74023 1.46a4.4232 4.4232 0 0 1 0.5 2.04v39.5h35v-39.5a4.4233 4.4233 0 0 1 0.5-2.04l0.74024-1.46zm34.24 3.5v37.5h-31v-37.5a6.2774 6.2774 0 0 0-0.18017-1.5h31.36a6.2769 6.2769 0 0 0-0.18018 1.5zm-78.24-3.5 0.74023 1.46a4.4232 4.4232 0 0 1 0.5 2.04v39.5h35v-39.5a4.4233 4.4233 0 0 1 0.5-2.04l0.74024-1.46zm34.24 3.5v37.5h-31v-37.5a6.2774 6.2774 0 0 0-0.18017-1.5h31.36a6.2769 6.2769 0 0 0-0.18018 1.5zm317.76-3.5 0.74023 1.46a4.4232 4.4232 0 0 1 0.5 2.04v39.5h35v-39.5a4.4233 4.4233 0 0 1 0.5-2.04l0.74024-1.46zm34.24 3.5v37.5h-31v-37.5a6.2774 6.2774 0 0 0-0.18017-1.5h31.36a6.2769 6.2769 0 0 0-0.18018 1.5zm-77.5-2.04a4.4232 4.4232 0 0 1 0.5 2.04v39.5h35v-39.5a4.4233 4.4233 0 0 1 0.5-2.04l0.74024-1.46h-37.48zm33.68 0.54a6.2769 6.2769 0 0 0-0.18018 1.5v37.5h-31v-37.5a6.2774 6.2774 0 0 0-0.18017-1.5zm-77.68-0.54a4.4232 4.4232 0 0 1 0.5 2.04v39.5h35v-39.5a4.4233 4.4233 0 0 1 0.5-2.04l0.74024-1.46h-37.48zm33.68 0.54a6.2769 6.2769 0 0 0-0.18018 1.5v37.5h-31v-37.5a6.2774 6.2774 0 0 0-0.18017-1.5zm-77.68-0.54a4.4232 4.4232 0 0 1 0.5 2.04v39.5h35v-39.5a4.4233 4.4233 0 0 1 0.5-2.04l0.74024-1.46h-37.48zm33.68 0.54a6.2769 6.2769 0 0 0-0.18018 1.5v37.5h-31v-37.5a6.2774 6.2774 0 0 0-0.18017-1.5zm-77.68-0.54a4.4232 4.4232 0 0 1 0.5 2.04v39.5h35v-39.5a4.4233 4.4233 0 0 1 0.5-2.04l0.74024-1.46h-37.48zm33.68 0.54a6.2769 6.2769 0 0 0-0.18018 1.5v37.5h-31v-37.5a6.2774 6.2774 0 0 0-0.18017-1.5zm-77.68-0.54a4.4232 4.4232 0 0 1 0.5 2.04v39.5h35v-39.5a4.4233 4.4233 0 0 1 0.5-2.04l0.74024-1.46h-37.48zm33.68 0.54a6.2769 6.2769 0 0 0-0.18018 1.5v37.5h-31v-37.5a6.2774 6.2774 0 0 0-0.18017-1.5zm-77.68-0.54a4.4232 4.4232 0 0 1 0.5 2.04v39.5h35v-39.5a4.4233 4.4233 0 0 1 0.5-2.04l0.74024-1.46h-37.48zm33.68 0.54a6.2769 6.2769 0 0 0-0.18018 1.5v37.5h-31v-37.5a6.2774 6.2774 0 0 0-0.18017-1.5zm-77.68-0.54a4.4232 4.4232 0 0 1 0.5 2.04v39.5h35v-39.5a4.4233 4.4233 0 0 1 0.5-2.04l0.74024-1.46h-37.48zm33.68 0.54a6.2769 6.2769 0 0 0-0.18018 1.5v37.5h-31v-37.5a6.2774 6.2774 0 0 0-0.18017-1.5zm-77.68-0.54a4.4232 4.4232 0 0 1 0.5 2.04v39.5h35v-39.5a4.4233 4.4233 0 0 1 0.5-2.04l0.74024-1.46h-37.48zm33.68 0.54a6.2769 6.2769 0 0 0-0.18018 1.5v37.5h-31v-37.5a6.2774 6.2774 0 0 0-0.18017-1.5zm318.32-0.54a4.4232 4.4232 0 0 1 0.5 2.04v39.5h35v-39.5a4.4233 4.4233 0 0 1 0.5-2.04l0.74024-1.46h-37.48zm33.68 0.54a6.2769 6.2769 0 0 0-0.18018 1.5v37.5h-31v-37.5a6.2774 6.2774 0 0 0-0.18017-1.5zm-77.68-0.54a4.4232 4.4232 0 0 1 0.5 2.04v39.5h35v-39.5a4.4233 4.4233 0 0 1 0.5-2.04l0.74024-1.46h-37.48zm33.68 0.54a6.2769 6.2769 0 0 0-0.18018 1.5v37.5h-31v-37.5a6.2774 6.2774 0 0 0-0.18017-1.5zm-77.68-0.54a4.4232 4.4232 0 0 1 0.5 2.04v39.5h35v-39.5a4.4233 4.4233 0 0 1 0.5-2.04l0.74024-1.46h-37.48zm33.68 0.54a6.2769 6.2769 0 0 0-0.18018 1.5v37.5h-31v-37.5a6.2774 6.2774 0 0 0-0.18017-1.5zm-77.68-0.54a4.4232 4.4232 0 0 1 0.5 2.04v39.5h35v-39.5a4.4233 4.4233 0 0 1 0.5-2.04l0.74024-1.46h-37.48zm33.68 0.54a6.2769 6.2769 0 0 0-0.18018 1.5v37.5h-31v-37.5a6.2774 6.2774 0 0 0-0.18017-1.5zm-77.68-0.54a4.4232 4.4232 0 0 1 0.5 2.04v39.5h35v-39.5a4.4233 4.4233 0 0 1 0.5-2.04l0.74024-1.46h-37.48zm33.68 0.54a6.2769 6.2769 0 0 0-0.18018 1.5v37.5h-31v-37.5a6.2774 6.2774 0 0 0-0.18017-1.5zm-77.68-0.54a4.4232 4.4232 0 0 1 0.5 2.04v39.5h35v-39.5a4.4233 4.4233 0 0 1 0.5-2.04l0.74024-1.46h-37.48zm33.68 0.54a6.2769 6.2769 0 0 0-0.18018 1.5v37.5h-31v-37.5a6.2774 6.2774 0 0 0-0.18017-1.5zm-77.68-0.54a4.4232 4.4232 0 0 1 0.5 2.04v39.5h35v-39.5a4.4233 4.4233 0 0 1 0.5-2.04l0.74024-1.46h-37.48zm33.68 0.54a6.2769 6.2769 0 0 0-0.18018 1.5v37.5h-31v-37.5a6.2774 6.2774 0 0 0-0.18017-1.5zm-77.68-0.54a4.4232 4.4232 0 0 1 0.5 2.04v39.5h35v-39.5a4.4233 4.4233 0 0 1 0.5-2.04l0.74024-1.46h-37.48zm33.68 0.54a6.2769 6.2769 0 0 0-0.18018 1.5v37.5h-31v-37.5a6.2774 6.2774 0 0 0-0.18017-1.5zm-77.68-0.54a4.4232 4.4232 0 0 1 0.5 2.04v39.5h35v-39.5a4.4233 4.4233 0 0 1 0.5-2.04l0.74024-1.46h-37.48zm33.68 0.54a6.2769 6.2769 0 0 0-0.18018 1.5v37.5h-31v-37.5a6.2774 6.2774 0 0 0-0.18017-1.5zm393.82 47h-11.92a11.031 11.031 0 0 0-10.58-8h-6.5v-37.5a6.2516 6.2516 0 0 0-0.45019-2.35 5.9892 5.9892 0 0 0-3.0498-11.15h-402a5.9892 5.9892 0 0 0-3.0498 11.15 6.2516 6.2516 0 0 0-0.4502 2.35v37.5h-6.5a11.031 11.031 0 0 0-10.58 8h-12.92a9.0136 9.0136 0 0 0-9 9v528a9.0196 9.0196 0 0 0 9 9h468a9.0131 9.0131 0 0 0 9-9v-528a9.0136 9.0136 0 0 0-9-9zm7 537a7.005 7.005 0 0 1-4.5698 6.56 6.7231 6.7231 0 0 1-2.4302 0.44h-468a6.7231 6.7231 0 0 1-2.4302-0.44 7.005 7.005 0 0 1-4.5698-6.56v-528a7.0078 7.0078 0 0 1 7-7h14.52l0.16016-0.8a9.0318 9.0318 0 0 1 8.8198-7.2h8.5v-39.5a4.4941 4.4941 0 0 1 0.64014-2.31l0.61963-1.03-1.1299-0.42a3.9894 3.9894 0 0 1 1.3701-7.74h402a3.9894 3.9894 0 0 1 1.3701 7.74l-1.1299 0.42 0.61963 1.03a4.4894 4.4894 0 0 1 0.64013 2.31v39.5h8.5a9.0314 9.0314 0 0 1 8.8198 7.2l0.16015 0.8h13.52a7.0078 7.0078 0 0 1 7 7zm-435.24-586 0.74023 1.46a4.4232 4.4232 0 0 1 0.5 2.04v39.5h35v-39.5a4.4233 4.4233 0 0 1 0.5-2.04l0.74024-1.46zm34.24 3.5v37.5h-31v-37.5a6.2774 6.2774 0 0 0-0.18017-1.5h31.36a6.2769 6.2769 0 0 0-0.18018 1.5zm9.7598-3.5 0.74023 1.46a4.4232 4.4232 0 0 1 0.5 2.04v39.5h35v-39.5a4.4233 4.4233 0 0 1 0.5-2.04l0.74024-1.46zm34.24 3.5v37.5h-31v-37.5a6.2774 6.2774 0 0 0-0.18017-1.5h31.36a6.2769 6.2769 0 0 0-0.18018 1.5zm9.7598-3.5 0.74023 1.46a4.4232 4.4232 0 0 1 0.5 2.04v39.5h35v-39.5a4.4233 4.4233 0 0 1 0.5-2.04l0.74024-1.46zm34.24 3.5v37.5h-31v-37.5a6.2774 6.2774 0 0 0-0.18017-1.5h31.36a6.2769 6.2769 0 0 0-0.18018 1.5zm9.7598-3.5 0.74023 1.46a4.4232 4.4232 0 0 1 0.5 2.04v39.5h35v-39.5a4.4233 4.4233 0 0 1 0.5-2.04l0.74024-1.46zm34.24 3.5v37.5h-31v-37.5a6.2774 6.2774 0 0 0-0.18017-1.5h31.36a6.2769 6.2769 0 0 0-0.18018 1.5zm9.7598-3.5 0.74023 1.46a4.4232 4.4232 0 0 1 0.5 2.04v39.5h35v-39.5a4.4233 4.4233 0 0 1 0.5-2.04l0.74024-1.46zm34.24 3.5v37.5h-31v-37.5a6.2774 6.2774 0 0 0-0.18017-1.5h31.36a6.2769 6.2769 0 0 0-0.18018 1.5zm9.7598-3.5 0.74023 1.46a4.4232 4.4232 0 0 1 0.5 2.04v39.5h35v-39.5a4.4233 4.4233 0 0 1 0.5-2.04l0.74024-1.46zm34.24 3.5v37.5h-31v-37.5a6.2774 6.2774 0 0 0-0.18017-1.5h31.36a6.2769 6.2769 0 0 0-0.18018 1.5zm9.7598-3.5 0.74023 1.46a4.4232 4.4232 0 0 1 0.5 2.04v39.5h35v-39.5a4.4233 4.4233 0 0 1 0.5-2.04l0.74024-1.46zm34.24 3.5v37.5h-31v-37.5a6.2774 6.2774 0 0 0-0.18017-1.5h31.36a6.2769 6.2769 0 0 0-0.18018 1.5zm9.7598-3.5 0.74023 1.46a4.4232 4.4232 0 0 1 0.5 2.04v39.5h35v-39.5a4.4233 4.4233 0 0 1 0.5-2.04l0.74024-1.46zm34.24 3.5v37.5h-31v-37.5a6.2774 6.2774 0 0 0-0.18017-1.5h31.36a6.2769 6.2769 0 0 0-0.18018 1.5zm9.7598-3.5 0.74023 1.46a4.4232 4.4232 0 0 1 0.5 2.04v39.5h35v-39.5a4.4233 4.4233 0 0 1 0.5-2.04l0.74024-1.46zm34.24 3.5v37.5h-31v-37.5a6.2774 6.2774 0 0 0-0.18017-1.5h31.36a6.2769 6.2769 0 0 0-0.18018 1.5zm-386.24-3.5 0.74023 1.46a4.4232 4.4232 0 0 1 0.5 2.04v39.5h35v-39.5a4.4233 4.4233 0 0 1 0.5-2.04l0.74024-1.46zm34.24 3.5v37.5h-31v-37.5a6.2774 6.2774 0 0 0-0.18017-1.5h31.36a6.2769 6.2769 0 0 0-0.18018 1.5zm9.7598-3.5 0.74023 1.46a4.4232 4.4232 0 0 1 0.5 2.04v39.5h35v-39.5a4.4233 4.4233 0 0 1 0.5-2.04l0.74024-1.46zm34.24 3.5v37.5h-31v-37.5a6.2774 6.2774 0 0 0-0.18017-1.5h31.36a6.2769 6.2769 0 0 0-0.18018 1.5zm9.7598-3.5 0.74023 1.46a4.4232 4.4232 0 0 1 0.5 2.04v39.5h35v-39.5a4.4233 4.4233 0 0 1 0.5-2.04l0.74024-1.46zm34.24 3.5v37.5h-31v-37.5a6.2774 6.2774 0 0 0-0.18017-1.5h31.36a6.2769 6.2769 0 0 0-0.18018 1.5zm9.7598-3.5 0.74023 1.46a4.4232 4.4232 0 0 1 0.5 2.04v39.5h35v-39.5a4.4233 4.4233 0 0 1 0.5-2.04l0.74024-1.46zm34.24 3.5v37.5h-31v-37.5a6.2774 6.2774 0 0 0-0.18017-1.5h31.36a6.2769 6.2769 0 0 0-0.18018 1.5zm9.7598-3.5 0.74023 1.46a4.4232 4.4232 0 0 1 0.5 2.04v39.5h35v-39.5a4.4233 4.4233 0 0 1 0.5-2.04l0.74024-1.46zm34.24 3.5v37.5h-31v-37.5a6.2774 6.2774 0 0 0-0.18017-1.5h31.36a6.2769 6.2769 0 0 0-0.18018 1.5zm9.7598-3.5 0.74023 1.46a4.4232 4.4232 0 0 1 0.5 2.04v39.5h35v-39.5a4.4233 4.4233 0 0 1 0.5-2.04l0.74024-1.46zm34.24 3.5v37.5h-31v-37.5a6.2774 6.2774 0 0 0-0.18017-1.5h31.36a6.2769 6.2769 0 0 0-0.18018 1.5zm9.7598-3.5 0.74023 1.46a4.4232 4.4232 0 0 1 0.5 2.04v39.5h35v-39.5a4.4233 4.4233 0 0 1 0.5-2.04l0.74024-1.46zm34.24 3.5v37.5h-31v-37.5a6.2774 6.2774 0 0 0-0.18017-1.5h31.36a6.2769 6.2769 0 0 0-0.18018 1.5zm9.7598-3.5 0.74023 1.46a4.4232 4.4232 0 0 1 0.5 2.04v39.5h35v-39.5a4.4233 4.4233 0 0 1 0.5-2.04l0.74024-1.46zm34.24 3.5v37.5h-31v-37.5a6.2774 6.2774 0 0 0-0.18017-1.5h31.36a6.2769 6.2769 0 0 0-0.18018 1.5zm9.7598-3.5 0.74023 1.46a4.4232 4.4232 0 0 1 0.5 2.04v39.5h35v-39.5a4.4233 4.4233 0 0 1 0.5-2.04l0.74024-1.46zm34.24 3.5v37.5h-31v-37.5a6.2774 6.2774 0 0 0-0.18017-1.5h31.36a6.2769 6.2769 0 0 0-0.18018 1.5zm-386.24-3.5 0.74023 1.46a4.4232 4.4232 0 0 1 0.5 2.04v39.5h35v-39.5a4.4233 4.4233 0 0 1 0.5-2.04l0.74024-1.46zm34.24 3.5v37.5h-31v-37.5a6.2774 6.2774 0 0 0-0.18017-1.5h31.36a6.2769 6.2769 0 0 0-0.18018 1.5zm9.7598-3.5 0.74023 1.46a4.4232 4.4232 0 0 1 0.5 2.04v39.5h35v-39.5a4.4233 4.4233 0 0 1 0.5-2.04l0.74024-1.46zm34.24 3.5v37.5h-31v-37.5a6.2774 6.2774 0 0 0-0.18017-1.5h31.36a6.2769 6.2769 0 0 0-0.18018 1.5zm9.7598-3.5 0.74023 1.46a4.4232 4.4232 0 0 1 0.5 2.04v39.5h35v-39.5a4.4233 4.4233 0 0 1 0.5-2.04l0.74024-1.46zm34.24 3.5v37.5h-31v-37.5a6.2774 6.2774 0 0 0-0.18017-1.5h31.36a6.2769 6.2769 0 0 0-0.18018 1.5zm9.7598-3.5 0.74023 1.46a4.4232 4.4232 0 0 1 0.5 2.04v39.5h35v-39.5a4.4233 4.4233 0 0 1 0.5-2.04l0.74024-1.46zm34.24 3.5v37.5h-31v-37.5a6.2774 6.2774 0 0 0-0.18017-1.5h31.36a6.2769 6.2769 0 0 0-0.18018 1.5zm9.7598-3.5 0.74023 1.46a4.4232 4.4232 0 0 1 0.5 2.04v39.5h35v-39.5a4.4233 4.4233 0 0 1 0.5-2.04l0.74024-1.46zm34.24 3.5v37.5h-31v-37.5a6.2774 6.2774 0 0 0-0.18017-1.5h31.36a6.2769 6.2769 0 0 0-0.18018 1.5zm9.7598-3.5 0.74023 1.46a4.4232 4.4232 0 0 1 0.5 2.04v39.5h35v-39.5a4.4233 4.4233 0 0 1 0.5-2.04l0.74024-1.46zm34.24 3.5v37.5h-31v-37.5a6.2774 6.2774 0 0 0-0.18017-1.5h31.36a6.2769 6.2769 0 0 0-0.18018 1.5zm9.7598-3.5 0.74023 1.46a4.4232 4.4232 0 0 1 0.5 2.04v39.5h35v-39.5a4.4233 4.4233 0 0 1 0.5-2.04l0.74024-1.46zm34.24 3.5v37.5h-31v-37.5a6.2774 6.2774 0 0 0-0.18017-1.5h31.36a6.2769 6.2769 0 0 0-0.18018 1.5zm9.7598-3.5 0.74023 1.46a4.4232 4.4232 0 0 1 0.5 2.04v39.5h35v-39.5a4.4233 4.4233 0 0 1 0.5-2.04l0.74024-1.46zm34.24 3.5v37.5h-31v-37.5a6.2774 6.2774 0 0 0-0.18017-1.5h31.36a6.2769 6.2769 0 0 0-0.18018 1.5zm9.7598-3.5 0.74023 1.46a4.4232 4.4232 0 0 1 0.5 2.04v39.5h35v-39.5a4.4233 4.4233 0 0 1 0.5-2.04l0.74024-1.46zm34.24 3.5v37.5h-31v-37.5a6.2774 6.2774 0 0 0-0.18017-1.5h31.36a6.2769 6.2769 0 0 0-0.18018 1.5zm-386.24-3.5 0.74023 1.46a4.4232 4.4232 0 0 1 0.5 2.04v39.5h35v-39.5a4.4233 4.4233 0 0 1 0.5-2.04l0.74024-1.46zm34.24 3.5v37.5h-31v-37.5a6.2774 6.2774 0 0 0-0.18017-1.5h31.36a6.2769 6.2769 0 0 0-0.18018 1.5zm9.7598-3.5 0.74023 1.46a4.4232 4.4232 0 0 1 0.5 2.04v39.5h35v-39.5a4.4233 4.4233 0 0 1 0.5-2.04l0.74024-1.46zm34.24 3.5v37.5h-31v-37.5a6.2774 6.2774 0 0 0-0.18017-1.5h31.36a6.2769 6.2769 0 0 0-0.18018 1.5zm9.7598-3.5 0.74023 1.46a4.4232 4.4232 0 0 1 0.5 2.04v39.5h35v-39.5a4.4233 4.4233 0 0 1 0.5-2.04l0.74024-1.46zm34.24 3.5v37.5h-31v-37.5a6.2774 6.2774 0 0 0-0.18017-1.5h31.36a6.2769 6.2769 0 0 0-0.18018 1.5zm9.7598-3.5 0.74023 1.46a4.4232 4.4232 0 0 1 0.5 2.04v39.5h35v-39.5a4.4233 4.4233 0 0 1 0.5-2.04l0.74024-1.46zm34.24 3.5v37.5h-31v-37.5a6.2774 6.2774 0 0 0-0.18017-1.5h31.36a6.2769 6.2769 0 0 0-0.18018 1.5zm9.7598-3.5 0.74023 1.46a4.4232 4.4232 0 0 1 0.5 2.04v39.5h35v-39.5a4.4233 4.4233 0 0 1 0.5-2.04l0.74024-1.46zm34.24 3.5v37.5h-31v-37.5a6.2774 6.2774 0 0 0-0.18017-1.5h31.36a6.2769 6.2769 0 0 0-0.18018 1.5zm9.7598-3.5 0.74023 1.46a4.4232 4.4232 0 0 1 0.5 2.04v39.5h35v-39.5a4.4233 4.4233 0 0 1 0.5-2.04l0.74024-1.46zm34.24 3.5v37.5h-31v-37.5a6.2774 6.2774 0 0 0-0.18017-1.5h31.36a6.2769 6.2769 0 0 0-0.18018 1.5zm9.7598-3.5 0.74023 1.46a4.4232 4.4232 0 0 1 0.5 2.04v39.5h35v-39.5a4.4233 4.4233 0 0 1 0.5-2.04l0.74024-1.46zm34.24 3.5v37.5h-31v-37.5a6.2774 6.2774 0 0 0-0.18017-1.5h31.36a6.2769 6.2769 0 0 0-0.18018 1.5zm9.7598-3.5 0.74023 1.46a4.4232 4.4232 0 0 1 0.5 2.04v39.5h35v-39.5a4.4233 4.4233 0 0 1 0.5-2.04l0.74024-1.46zm34.24 3.5v37.5h-31v-37.5a6.2774 6.2774 0 0 0-0.18017-1.5h31.36a6.2769 6.2769 0 0 0-0.18018 1.5zm9.7598-3.5 0.74023 1.46a4.4232 4.4232 0 0 1 0.5 2.04v39.5h35v-39.5a4.4233 4.4233 0 0 1 0.5-2.04l0.74024-1.46zm34.24 3.5v37.5h-31v-37.5a6.2774 6.2774 0 0 0-0.18017-1.5h31.36a6.2769 6.2769 0 0 0-0.18018 1.5z" fill="#3f3d56"/>
<path transform="translate(-95 -64.718)" d="m507.92 413.72h-73.743a5.8647 5.8647 0 0 1-5.8581-5.8581v-39.284a5.8647 5.8647 0 0 1 5.8581-5.8581h73.743a5.8647 5.8647 0 0 1 5.8581 5.8581v39.284a5.8647 5.8647 0 0 1-5.8581 5.8581z" fill="#00bfa6"/>
<path transform="translate(-95 -64.718)" d="m620.14 413.72h-73.743a5.8647 5.8647 0 0 1-5.8581-5.8581v-39.284a5.8647 5.8647 0 0 1 5.8581-5.8581h73.743a5.8647 5.8647 0 0 1 5.8581 5.8581v39.284a5.8647 5.8647 0 0 1-5.8581 5.8581z" fill="#00bfa6"/>
<path transform="translate(-95 -64.718)" d="m732.36 413.72h-73.743a5.8647 5.8647 0 0 1-5.8581-5.8581v-39.284a5.8647 5.8647 0 0 1 5.8581-5.8581h73.743a5.8647 5.8647 0 0 1 5.8581 5.8581v39.284a5.8647 5.8647 0 0 1-5.8581 5.8581z" fill="#00bfa6"/>
<path transform="translate(-95 -64.718)" d="m507.92 544.72h-73.743a5.8647 5.8647 0 0 1-5.8581-5.8581v-39.284a5.8647 5.8647 0 0 1 5.8581-5.8581h73.743a5.8647 5.8647 0 0 1 5.8581 5.8581v39.284a5.8647 5.8647 0 0 1-5.8581 5.8581z" fill="#00bfa6"/>
<path transform="translate(-95 -64.718)" d="m620.14 544.72h-73.743a5.8647 5.8647 0 0 1-5.8581-5.8581v-39.284a5.8647 5.8647 0 0 1 5.8581-5.8581h73.743a5.8647 5.8647 0 0 1 5.8581 5.8581v39.284a5.8647 5.8647 0 0 1-5.8581 5.8581z" fill="#00bfa6"/>
<path transform="translate(-95 -64.718)" d="m732.36 544.72h-73.743a5.8647 5.8647 0 0 1-5.8581-5.8581v-39.284a5.8647 5.8647 0 0 1 5.8581-5.8581h73.743a5.8647 5.8647 0 0 1 5.8581 5.8581v39.284a5.8647 5.8647 0 0 1-5.8581 5.8581z" fill="#00bfa6"/>
<path transform="translate(-95 -64.718)" d="m507.92 675.72h-73.743a5.8647 5.8647 0 0 1-5.8581-5.8581v-39.284a5.8647 5.8647 0 0 1 5.8581-5.8581h73.743a5.8647 5.8647 0 0 1 5.8581 5.8581v39.284a5.8647 5.8647 0 0 1-5.8581 5.8581z" fill="#00bfa6"/>
<path transform="translate(-95 -64.718)" d="m620.14 675.72h-73.743a5.8647 5.8647 0 0 1-5.8581-5.8581v-39.284a5.8647 5.8647 0 0 1 5.8581-5.8581h73.743a5.8647 5.8647 0 0 1 5.8581 5.8581v39.284a5.8647 5.8647 0 0 1-5.8581 5.8581z" fill="#00bfa6"/>
<path transform="translate(-95 -64.718)" d="m732.36 675.72h-73.743a5.8647 5.8647 0 0 1-5.8581-5.8581v-39.284a5.8647 5.8647 0 0 1 5.8581-5.8581h73.743a5.8647 5.8647 0 0 1 5.8581 5.8581v39.284a5.8647 5.8647 0 0 1-5.8581 5.8581z" fill="#00bfa6"/>
<path transform="translate(-95 -64.718)" d="m495.99 418.76h-85.427a7.7953 7.7953 0 0 1-7.7863-7.7866v-45.508a7.7953 7.7953 0 0 1 7.7863-7.7866h85.427a7.7954 7.7954 0 0 1 7.7864 7.7866v45.508a7.7954 7.7954 0 0 1-7.7864 7.7866zm-85.427-59.081a5.7929 5.7929 0 0 0-5.7863 5.7866v45.508a5.7929 5.7929 0 0 0 5.7863 5.7866h85.427a5.7929 5.7929 0 0 0 5.7864-5.7866v-45.508a5.7929 5.7929 0 0 0-5.7864-5.7866z" fill="#3f3d56"/>
<path transform="translate(-95 -64.718)" d="m625.99 418.76h-85.427a7.7954 7.7954 0 0 1-7.7864-7.7866v-45.508a7.7954 7.7954 0 0 1 7.7864-7.7866h85.427a7.7954 7.7954 0 0 1 7.7864 7.7866v45.508a7.7954 7.7954 0 0 1-7.7863 7.7866zm-85.427-59.081a5.7929 5.7929 0 0 0-5.7864 5.7866v45.508a5.7929 5.7929 0 0 0 5.7864 5.7866h85.427a5.7929 5.7929 0 0 0 5.7864-5.7866v-45.508a5.7929 5.7929 0 0 0-5.7864-5.7866z" fill="#3f3d56"/>
<path transform="translate(-95 -64.718)" d="m755.99 418.76h-85.427a7.7954 7.7954 0 0 1-7.7864-7.7866v-45.508a7.7954 7.7954 0 0 1 7.7864-7.7866h85.427a7.7954 7.7954 0 0 1 7.7864 7.7866v45.508a7.7954 7.7954 0 0 1-7.7863 7.7866zm-85.427-59.081a5.7929 5.7929 0 0 0-5.7864 5.7866v45.508a5.7929 5.7929 0 0 0 5.7864 5.7866h85.427a5.7929 5.7929 0 0 0 5.7864-5.7866v-45.508a5.7929 5.7929 0 0 0-5.7864-5.7866z" fill="#3f3d56"/>
<path transform="translate(-95 -64.718)" d="m495.99 549.76h-85.427a7.7953 7.7953 0 0 1-7.7863-7.7866v-45.508a7.7953 7.7953 0 0 1 7.7863-7.7866h85.427a7.7954 7.7954 0 0 1 7.7864 7.7866v45.508a7.7954 7.7954 0 0 1-7.7864 7.7866zm-85.427-59.081a5.7929 5.7929 0 0 0-5.7863 5.7866v45.508a5.7929 5.7929 0 0 0 5.7863 5.7866h85.427a5.7929 5.7929 0 0 0 5.7864-5.7866v-45.508a5.7929 5.7929 0 0 0-5.7864-5.7866z" fill="#3f3d56"/>
<path transform="translate(-95 -64.718)" d="m625.99 549.76h-85.427a7.7954 7.7954 0 0 1-7.7864-7.7866v-45.508a7.7954 7.7954 0 0 1 7.7864-7.7866h85.427a7.7954 7.7954 0 0 1 7.7864 7.7866v45.508a7.7954 7.7954 0 0 1-7.7863 7.7866zm-85.427-59.081a5.7929 5.7929 0 0 0-5.7864 5.7866v45.508a5.7929 5.7929 0 0 0 5.7864 5.7866h85.427a5.7929 5.7929 0 0 0 5.7864-5.7866v-45.508a5.7929 5.7929 0 0 0-5.7864-5.7866z" fill="#3f3d56"/>
<path transform="translate(-95 -64.718)" d="m755.99 549.76h-85.427a7.7954 7.7954 0 0 1-7.7864-7.7866v-45.508a7.7954 7.7954 0 0 1 7.7864-7.7866h85.427a7.7954 7.7954 0 0 1 7.7864 7.7866v45.508a7.7954 7.7954 0 0 1-7.7863 7.7866zm-85.427-59.081a5.7929 5.7929 0 0 0-5.7864 5.7866v45.508a5.7929 5.7929 0 0 0 5.7864 5.7866h85.427a5.7929 5.7929 0 0 0 5.7864-5.7866v-45.508a5.7929 5.7929 0 0 0-5.7864-5.7866z" fill="#3f3d56"/>
<path transform="translate(-95 -64.718)" d="m495.99 680.76h-85.427a7.7953 7.7953 0 0 1-7.7863-7.7866v-45.508a7.7953 7.7953 0 0 1 7.7863-7.7866h85.427a7.7954 7.7954 0 0 1 7.7864 7.7866v45.508a7.7954 7.7954 0 0 1-7.7864 7.7866zm-85.427-59.081a5.7929 5.7929 0 0 0-5.7863 5.7866v45.508a5.7929 5.7929 0 0 0 5.7863 5.7866h85.427a5.7929 5.7929 0 0 0 5.7864-5.7866v-45.508a5.7929 5.7929 0 0 0-5.7864-5.7866z" fill="#3f3d56"/>
<path transform="translate(-95 -64.718)" d="m625.99 680.76h-85.427a7.7954 7.7954 0 0 1-7.7864-7.7866v-45.508a7.7954 7.7954 0 0 1 7.7864-7.7866h85.427a7.7954 7.7954 0 0 1 7.7864 7.7866v45.508a7.7954 7.7954 0 0 1-7.7863 7.7866zm-85.427-59.081a5.7929 5.7929 0 0 0-5.7864 5.7866v45.508a5.7929 5.7929 0 0 0 5.7864 5.7866h85.427a5.7929 5.7929 0 0 0 5.7864-5.7866v-45.508a5.7929 5.7929 0 0 0-5.7864-5.7866z" fill="#3f3d56"/>
<path transform="translate(-95 -64.718)" d="m755.99 680.76h-85.427a7.7954 7.7954 0 0 1-7.7864-7.7866v-45.508a7.7954 7.7954 0 0 1 7.7864-7.7866h85.427a7.7954 7.7954 0 0 1 7.7864 7.7866v45.508a7.7954 7.7954 0 0 1-7.7863 7.7866zm-85.427-59.081a5.7929 5.7929 0 0 0-5.7864 5.7866v45.508a5.7929 5.7929 0 0 0 5.7864 5.7866h85.427a5.7929 5.7929 0 0 0 5.7864-5.7866v-45.508a5.7929 5.7929 0 0 0-5.7864-5.7866z" fill="#3f3d56"/>
<path transform="translate(-95 -64.718)" d="m1104 835.22h-1008a1 1 0 0 1 0-2h1008a1 1 0 0 1 0 2z" fill="#3f3d56"/>
<path transform="translate(-95 -64.718)" d="m633.77 738.43a8.6072 8.6072 0 0 0-8.5-8.7104h-42v103.5h50.5z" fill="#3f3d56"/>
<path transform="translate(-95 -64.718)" d="m584.27 832.22h-52.5v-93.5a9.5108 9.5108 0 0 1 9.5-9.5h43zm-50.5-2h48.5v-99h-41a7.5084 7.5084 0 0 0-7.5 7.5z" fill="#3f3d56"/>
<circle cx="443.27" cy="720" r="3" fill="#3f3d56"/>
</svg>
