<?xml version="1.0" encoding="UTF-8"?>
<svg viewBox="0 0 1080 1080" xmlns="http://www.w3.org/2000/svg" xmlns:v="https://vecta.io/nano">
<path d="M0 0h1080v1080H0z" fill="transparent"/>
<path d="M0 0h1080v1080H0z" fill="#fff" vector-effect="non-scaling-stroke"/>
<circle cx="179.27" cy="545.72" r="64" fill="#ff6584" vector-effect="non-scaling-stroke"/>
<path d="m310.34 907.22h-0.065a8.51 8.51 0 0 1-8.5-8.5v-499a8.51 8.51 0 0 1 8.5-8.5h420a8.51 8.51 0 0 1 8.5 8.5v388a8.51 8.51 0 0 1-8.434 8.5z" fill="#f2f2f2" vector-effect="non-scaling-stroke"/>
<path d="m620.77 320.72h-195v-113c6e-3 -4.968 4.032-8.994 9-9h177c4.968 6e-3 8.994 4.032 9 9zm-193-2h191v-111a7.01 7.01 0 0 0-7-7h-177a7.01 7.01 0 0 0-7 7z" fill="#3f3d56" vector-effect="non-scaling-stroke"/>
<path d="m481.27 241.72h84a8 8 0 0 1 8 8v120h-100v-120a8 8 0 0 1 8-8z" fill="#e6e6e6" vector-effect="non-scaling-stroke"/>
<path d="M497.772 200.718h-41v-41c.003-2.76 2.24-4.997 5-5h31c2.76.003 4.997 2.24 5 5zm-39-2h37v-39c-.002-1.656-1.344-2.998-3-3h-31c-1.656.002-2.998 1.344-3 3zm375.91 604.84c-.399 0-.787 0-1.185-.01a101.52 101.52 0 0 1-66.895-26.147q-1.019-.927-2.021-1.879l-.31-.295V583.574l.095-.203 2.005-4.17c20.8-42.229 45.059-65.483 68.31-65.483 33.53 0 59.533 45.994 72.05 73.41 17.405 38.124 29.56 85.364 29.56 114.88-.016 55.648-44.805 100.923-100.449 101.54-.374.01-.772.01-1.161.01zm-68.41-29.189l1.673 1.55a99.53 99.53 0 0 0 65.588 25.629c.405.01.788-.001 1.176.01l1.098-.009c54.312-.603 98.486-45.256 98.486-99.541 0-29.26-12.081-76.159-29.38-114.05-12.317-26.98-37.819-72.24-70.23-72.24-22.448 0-46.07 22.857-66.513 64.362l-1.897 3.942z" fill="#3f3d56" vector-effect="non-scaling-stroke"/>
<g fill="#ccc">
<path d="m834.68 924.81a1.15 1.15 0 0 1-1.151-1.151v-234.87a1.15 1.15 0 1 1 2.301 0v234.87a1.15 1.15 0 0 1-1.15 1.151zm-597 0a1.15 1.15 0 0 1-1.151-1.151v-234.87a1.15 1.15 0 1 1 2.301 0v234.87a1.15 1.15 0 0 1-1.15 1.151z" vector-effect="non-scaling-stroke"/>
<path d="M834.668 732.669a1.15 1.15 0 0 1-.87-.397l-57.864-66.73a1.151 1.151 0 1 1 1.739-1.508l57.864 66.73a1.15 1.15 0 0 1-.869 1.904zm.009 38.511a1.15 1.15 0 0 1-.813-1.964l32.879-32.88a1.15 1.15 0 1 1 1.627 1.627l-32.879 32.88c-.215.216-.508.337-.813.337z" vector-effect="non-scaling-stroke"/>
</g>
<g fill="#3f3d56">
<path d="m941.12 925.28h-86.005v-1c-7e-3 -15.368 8.187-29.572 21.495-37.259s29.706-7.686 43.015 0 21.503 21.89 21.495 37.259zm-83.993-2h81.981c-0.543-22.249-18.735-40.003-40.991-40.003s-40.448 17.754-40.991 40.003z" vector-effect="non-scaling-stroke"/>
<path d="M898.121 899.875c-.627 0-1.135.508-1.135 1.135v12.06l-11.748-10.083c-.308-.265-.734-.346-1.117-.212s-.666.463-.741.863.07.808.379 1.072l13.227 11.352v7.085c-.001.406.215.782.567.986s.785.204 1.137 0 .568-.58.567-.986V901.01c0-.627-.508-1.135-1.135-1.135zm-677.997 25.407h-86.005v-1c-.007-15.368 8.187-29.572 21.495-37.259s29.706-7.686 43.015 0a43 43 0 0 1 21.495 37.259zm-83.993-2h81.981c-.543-22.249-18.735-40.003-40.991-40.003s-40.448 17.754-40.991 40.003z" vector-effect="non-scaling-stroke"/>
<path d="M177.121 899.875c-.627 0-1.135.508-1.135 1.135v12.06l-11.748-10.083c-.308-.265-.734-.346-1.117-.212s-.666.463-.741.863.07.808.379 1.072l13.227 11.352v7.085c-.001.406.215.782.567.986s.785.204 1.137 0 .568-.58.567-.986V901.01c0-.627-.508-1.135-1.135-1.135zm61.551-96.317c-.399 0-.787 0-1.185-.01-55.637-.628-100.416-45.899-100.435-101.54 0-29.517 12.156-76.757 29.562-114.88 12.517-27.416 38.523-73.41 72.059-73.41 13.813 0 27.722 7.873 41.342 23.401a95.43 95.43 0 0 1 2.019 2.362l.229.277v253.986l-.564.273c-.673.326-1.356.632-2.039.928a100.61 100.61 0 0 1-39.827 8.603c-.373.01-.772.01-1.161.01zm0-287.84c-32.417 0-57.922 45.261-70.239 72.24-17.299 37.89-29.381 84.789-29.381 114.05 0 54.275 44.174 98.928 98.471 99.54.405.01.782.013 1.175.01l1.098-.009c13.46-.118 26.753-2.988 39.061-8.435l1.404-.628V540.479l-1.75-2.04c-13.225-15.077-26.628-22.721-39.84-22.721z" vector-effect="non-scaling-stroke"/>
</g>
<path d="M238.668 732.669a1.15 1.15 0 0 1-.87-.397l-57.864-66.73a1.151 1.151 0 1 1 1.739-1.508l57.864 66.73a1.15 1.15 0 0 1-.869 1.904zm.009 38.511a1.15 1.15 0 0 1-.813-1.964l32.879-32.88a1.15 1.15 0 1 1 1.627 1.627l-32.879 32.88c-.215.216-.508.337-.813.337z" fill="#ccc" vector-effect="non-scaling-stroke"/>
<path d="M329.031 328.718l.74 1.46c.328.63.5 1.33.5 2.04v39.5h35v-39.5c0-.71.172-1.41.5-2.04l.74-1.46zm34.24 3.5v37.5h-31v-37.5c.001-.505-.06-1.009-.18-1.5h31.36c-.12.491-.181.995-.18 1.5zm9.76-3.5l.74 1.46c.328.63.5 1.33.5 2.04v39.5h35v-39.5c0-.71.172-1.41.5-2.04l.74-1.46zm34.24 3.5v37.5h-31v-37.5c.001-.505-.06-1.009-.18-1.5h31.36c-.12.491-.181.995-.18 1.5zm9.76-3.5l.74 1.46c.328.63.5 1.33.5 2.04v39.5h35v-39.5c0-.71.172-1.41.5-2.04l.74-1.46zm34.24 3.5v37.5h-31v-37.5c.001-.505-.06-1.009-.18-1.5h31.36c-.12.491-.181.995-.18 1.5zm9.76-3.5l.74 1.46c.328.63.5 1.33.5 2.04v39.5h35v-39.5c0-.71.172-1.41.5-2.04l.74-1.46zm34.24 3.5v37.5h-31v-37.5c.001-.505-.06-1.009-.18-1.5h31.36c-.12.491-.181.995-.18 1.5zm9.76-3.5l.74 1.46c.328.63.5 1.33.5 2.04v39.5h35v-39.5c0-.71.172-1.41.5-2.04l.74-1.46zm34.24 3.5v37.5h-31v-37.5c.001-.505-.06-1.009-.18-1.5h31.36c-.12.491-.181.995-.18 1.5zm9.76-3.5l.74 1.46c.328.63.5 1.33.5 2.04v39.5h35v-39.5c0-.71.172-1.41.5-2.04l.74-1.46zm34.24 3.5v37.5h-31v-37.5c.001-.505-.06-1.009-.18-1.5h31.36c-.12.491-.181.995-.18 1.5zm9.76-3.5l.74 1.46c.328.63.5 1.33.5 2.04v39.5h35v-39.5c0-.71.172-1.41.5-2.04l.74-1.46zm34.24 3.5v37.5h-31v-37.5c.001-.505-.06-1.009-.18-1.5h31.36c-.12.491-.181.995-.18 1.5zm9.76-3.5l.74 1.46c.328.63.5 1.33.5 2.04v39.5h35v-39.5c0-.71.172-1.41.5-2.04l.74-1.46zm34.24 3.5v37.5h-31v-37.5c.001-.505-.06-1.009-.18-1.5h31.36c-.12.491-.181.995-.18 1.5zm9.76-3.5l.74 1.46c.328.63.5 1.33.5 2.04v39.5h35v-39.5c0-.71.172-1.41.5-2.04l.74-1.46zm34.24 3.5v37.5h-31v-37.5c.001-.505-.06-1.009-.18-1.5h31.36c-.12.491-.181.995-.18 1.5zm-34.24-3.5l.74 1.46c.328.63.5 1.33.5 2.04v39.5h35v-39.5c0-.71.172-1.41.5-2.04l.74-1.46zm34.24 3.5v37.5h-31v-37.5c.001-.505-.06-1.009-.18-1.5h31.36c-.12.491-.181.995-.18 1.5zm-78.24-3.5l.74 1.46c.328.63.5 1.33.5 2.04v39.5h35v-39.5c0-.71.172-1.41.5-2.04l.74-1.46zm34.24 3.5v37.5h-31v-37.5c.001-.505-.06-1.009-.18-1.5h31.36c-.12.491-.181.995-.18 1.5zm-78.24-3.5l.74 1.46c.328.63.5 1.33.5 2.04v39.5h35v-39.5c0-.71.172-1.41.5-2.04l.74-1.46zm34.24 3.5v37.5h-31v-37.5c.001-.505-.06-1.009-.18-1.5h31.36c-.12.491-.181.995-.18 1.5zm-78.24-3.5l.74 1.46c.328.63.5 1.33.5 2.04v39.5h35v-39.5c0-.71.172-1.41.5-2.04l.74-1.46zm34.24 3.5v37.5h-31v-37.5c.001-.505-.06-1.009-.18-1.5h31.36c-.12.491-.181.995-.18 1.5zm-78.24-3.5l.74 1.46c.328.63.5 1.33.5 2.04v39.5h35v-39.5c0-.71.172-1.41.5-2.04l.74-1.46zm34.24 3.5v37.5h-31v-37.5c.001-.505-.06-1.009-.18-1.5h31.36c-.12.491-.181.995-.18 1.5zm-78.24-3.5l.74 1.46c.328.63.5 1.33.5 2.04v39.5h35v-39.5c0-.71.172-1.41.5-2.04l.74-1.46zm34.24 3.5v37.5h-31v-37.5c.001-.505-.06-1.009-.18-1.5h31.36c-.12.491-.181.995-.18 1.5zm-78.24-3.5l.74 1.46c.328.63.5 1.33.5 2.04v39.5h35v-39.5c0-.71.172-1.41.5-2.04l.74-1.46zm34.24 3.5v37.5h-31v-37.5c.001-.505-.06-1.009-.18-1.5h31.36c-.12.491-.181.995-.18 1.5zm-78.24-3.5l.74 1.46c.328.63.5 1.33.5 2.04v39.5h35v-39.5c0-.71.172-1.41.5-2.04l.74-1.46zm34.24 3.5v37.5h-31v-37.5c.001-.505-.06-1.009-.18-1.5h31.36c-.12.491-.181.995-.18 1.5zm-78.24-3.5l.74 1.46c.328.63.5 1.33.5 2.04v39.5h35v-39.5c0-.71.172-1.41.5-2.04l.74-1.46zm34.24 3.5v37.5h-31v-37.5c.001-.505-.06-1.009-.18-1.5h31.36c-.12.491-.181.995-.18 1.5zm317.76-3.5l.74 1.46c.328.63.5 1.33.5 2.04v39.5h35v-39.5c0-.71.172-1.41.5-2.04l.74-1.46zm34.24 3.5v37.5h-31v-37.5c.001-.505-.06-1.009-.18-1.5h31.36c-.12.491-.181.995-.18 1.5zm-78.24-3.5l.74 1.46c.328.63.5 1.33.5 2.04v39.5h35v-39.5c0-.71.172-1.41.5-2.04l.74-1.46zm34.24 3.5v37.5h-31v-37.5c.001-.505-.06-1.009-.18-1.5h31.36c-.12.491-.181.995-.18 1.5zm-78.24-3.5l.74 1.46c.328.63.5 1.33.5 2.04v39.5h35v-39.5c0-.71.172-1.41.5-2.04l.74-1.46zm34.24 3.5v37.5h-31v-37.5c.001-.505-.06-1.009-.18-1.5h31.36c-.12.491-.181.995-.18 1.5zm-78.24-3.5l.74 1.46c.328.63.5 1.33.5 2.04v39.5h35v-39.5c0-.71.172-1.41.5-2.04l.74-1.46zm34.24 3.5v37.5h-31v-37.5c.001-.505-.06-1.009-.18-1.5h31.36c-.12.491-.181.995-.18 1.5zm-78.24-3.5l.74 1.46c.328.63.5 1.33.5 2.04v39.5h35v-39.5c0-.71.172-1.41.5-2.04l.74-1.46zm34.24 3.5v37.5h-31v-37.5c.001-.505-.06-1.009-.18-1.5h31.36c-.12.491-.181.995-.18 1.5zm-78.24-3.5l.74 1.46c.328.63.5 1.33.5 2.04v39.5h35v-39.5c0-.71.172-1.41.5-2.04l.74-1.46zm34.24 3.5v37.5h-31v-37.5c.001-.505-.06-1.009-.18-1.5h31.36c-.12.491-.181.995-.18 1.5zm-78.24-3.5l.74 1.46c.328.63.5 1.33.5 2.04v39.5h35v-39.5c0-.71.172-1.41.5-2.04l.74-1.46zm34.24 3.5v37.5h-31v-37.5c.001-.505-.06-1.009-.18-1.5h31.36c-.12.491-.181.995-.18 1.5zm-78.24-3.5l.74 1.46c.328.63.5 1.33.5 2.04v39.5h35v-39.5c0-.71.172-1.41.5-2.04l.74-1.46zm34.24 3.5v37.5h-31v-37.5c.001-.505-.06-1.009-.18-1.5h31.36c-.12.491-.181.995-.18 1.5zm-78.24-3.5l.74 1.46c.328.63.5 1.33.5 2.04v39.5h35v-39.5c0-.71.172-1.41.5-2.04l.74-1.46zm34.24 3.5v37.5h-31v-37.5c.001-.505-.06-1.009-.18-1.5h31.36c-.12.491-.181.995-.18 1.5zm317.76-3.5l.74 1.46c.328.63.5 1.33.5 2.04v39.5h35v-39.5c0-.71.172-1.41.5-2.04l.74-1.46zm34.24 3.5v37.5h-31v-37.5c.001-.505-.06-1.009-.18-1.5h31.36c-.12.491-.181.995-.18 1.5zm-78.24-3.5l.74 1.46c.328.63.5 1.33.5 2.04v39.5h35v-39.5c0-.71.172-1.41.5-2.04l.74-1.46zm34.24 3.5v37.5h-31v-37.5c.001-.505-.06-1.009-.18-1.5h31.36c-.12.491-.181.995-.18 1.5zm-78.24-3.5l.74 1.46c.328.63.5 1.33.5 2.04v39.5h35v-39.5c0-.71.172-1.41.5-2.04l.74-1.46zm34.24 3.5v37.5h-31v-37.5c.001-.505-.06-1.009-.18-1.5h31.36c-.12.491-.181.995-.18 1.5zm-78.24-3.5l.74 1.46c.328.63.5 1.33.5 2.04v39.5h35v-39.5c0-.71.172-1.41.5-2.04l.74-1.46zm34.24 3.5v37.5h-31v-37.5c.001-.505-.06-1.009-.18-1.5h31.36c-.12.491-.181.995-.18 1.5zm-78.24-3.5l.74 1.46c.328.63.5 1.33.5 2.04v39.5h35v-39.5c0-.71.172-1.41.5-2.04l.74-1.46zm34.24 3.5v37.5h-31v-37.5c.001-.505-.06-1.009-.18-1.5h31.36c-.12.491-.181.995-.18 1.5zm-78.24-3.5l.74 1.46c.328.63.5 1.33.5 2.04v39.5h35v-39.5c0-.71.172-1.41.5-2.04l.74-1.46zm34.24 3.5v37.5h-31v-37.5c.001-.505-.06-1.009-.18-1.5h31.36c-.12.491-.181.995-.18 1.5zm-78.24-3.5l.74 1.46c.328.63.5 1.33.5 2.04v39.5h35v-39.5c0-.71.172-1.41.5-2.04l.74-1.46zm34.24 3.5v37.5h-31v-37.5c.001-.505-.06-1.009-.18-1.5h31.36c-.12.491-.181.995-.18 1.5zm-78.24-3.5l.74 1.46c.328.63.5 1.33.5 2.04v39.5h35v-39.5c0-.71.172-1.41.5-2.04l.74-1.46zm34.24 3.5v37.5h-31v-37.5c.001-.505-.06-1.009-.18-1.5h31.36c-.12.491-.181.995-.18 1.5zm-78.24-3.5l.74 1.46c.328.63.5 1.33.5 2.04v39.5h35v-39.5c0-.71.172-1.41.5-2.04l.74-1.46zm34.24 3.5v37.5h-31v-37.5c.001-.505-.06-1.009-.18-1.5h31.36c-.12.491-.181.995-.18 1.5zm317.76-3.5l.74 1.46c.328.63.5 1.33.5 2.04v39.5h35v-39.5c0-.71.172-1.41.5-2.04l.74-1.46zm34.24 3.5v37.5h-31v-37.5c.001-.505-.06-1.009-.18-1.5h31.36c-.12.491-.181.995-.18 1.5zm-78.24-3.5l.74 1.46c.328.63.5 1.33.5 2.04v39.5h35v-39.5c0-.71.172-1.41.5-2.04l.74-1.46zm34.24 3.5v37.5h-31v-37.5c.001-.505-.06-1.009-.18-1.5h31.36c-.12.491-.181.995-.18 1.5zm-78.24-3.5l.74 1.46c.328.63.5 1.33.5 2.04v39.5h35v-39.5c0-.71.172-1.41.5-2.04l.74-1.46zm34.24 3.5v37.5h-31v-37.5c.001-.505-.06-1.009-.18-1.5h31.36c-.12.491-.181.995-.18 1.5zm-78.24-3.5l.74 1.46c.328.63.5 1.33.5 2.04v39.5h35v-39.5c0-.71.172-1.41.5-2.04l.74-1.46zm34.24 3.5v37.5h-31v-37.5c.001-.505-.06-1.009-.18-1.5h31.36c-.12.491-.181.995-.18 1.5zm-78.24-3.5l.74 1.46c.328.63.5 1.33.5 2.04v39.5h35v-39.5c0-.71.172-1.41.5-2.04l.74-1.46zm34.24 3.5v37.5h-31v-37.5c.001-.505-.06-1.009-.18-1.5h31.36c-.12.491-.181.995-.18 1.5zm-78.24-3.5l.74 1.46c.328.63.5 1.33.5 2.04v39.5h35v-39.5c0-.71.172-1.41.5-2.04l.74-1.46zm34.24 3.5v37.5h-31v-37.5c.001-.505-.06-1.009-.18-1.5h31.36c-.12.491-.181.995-.18 1.5zm-78.24-3.5l.74 1.46c.328.63.5 1.33.5 2.04v39.5h35v-39.5c0-.71.172-1.41.5-2.04l.74-1.46zm34.24 3.5v37.5h-31v-37.5c.001-.505-.06-1.009-.18-1.5h31.36c-.12.491-.181.995-.18 1.5zm-78.24-3.5l.74 1.46c.328.63.5 1.33.5 2.04v39.5h35v-39.5c0-.71.172-1.41.5-2.04l.74-1.46zm34.24 3.5v37.5h-31v-37.5c.001-.505-.06-1.009-.18-1.5h31.36c-.12.491-.181.995-.18 1.5zm-78.24-3.5l.74 1.46c.328.63.5 1.33.5 2.04v39.5h35v-39.5c0-.71.172-1.41.5-2.04l.74-1.46zm34.24 3.5v37.5h-31v-37.5c.001-.505-.06-1.009-.18-1.5h31.36c-.12.491-.181.995-.18 1.5zm317.76-3.5l.74 1.46c.328.63.5 1.33.5 2.04v39.5h35v-39.5c0-.71.172-1.41.5-2.04l.74-1.46zm34.24 3.5v37.5h-31v-37.5c.001-.505-.06-1.009-.18-1.5h31.36c-.12.491-.181.995-.18 1.5zm-77.5-2.04c.328.63.5 1.33.5 2.04v39.5h35v-39.5c0-.71.172-1.41.5-2.04l.74-1.46h-37.48zm33.68.54c-.12.491-.181.995-.18 1.5v37.5h-31v-37.5c.001-.505-.06-1.009-.18-1.5zm-77.68-.54c.328.63.5 1.33.5 2.04v39.5h35v-39.5c0-.71.172-1.41.5-2.04l.74-1.46h-37.48zm33.68.54c-.12.491-.181.995-.18 1.5v37.5h-31v-37.5c.001-.505-.06-1.009-.18-1.5zm-77.68-.54c.328.63.5 1.33.5 2.04v39.5h35v-39.5c0-.71.172-1.41.5-2.04l.74-1.46h-37.48zm33.68.54c-.12.491-.181.995-.18 1.5v37.5h-31v-37.5c.001-.505-.06-1.009-.18-1.5zm-77.68-.54c.328.63.5 1.33.5 2.04v39.5h35v-39.5c0-.71.172-1.41.5-2.04l.74-1.46h-37.48zm33.68.54c-.12.491-.181.995-.18 1.5v37.5h-31v-37.5c.001-.505-.06-1.009-.18-1.5zm-77.68-.54c.328.63.5 1.33.5 2.04v39.5h35v-39.5c0-.71.172-1.41.5-2.04l.74-1.46h-37.48zm33.68.54c-.12.491-.181.995-.18 1.5v37.5h-31v-37.5c.001-.505-.06-1.009-.18-1.5zm-77.68-.54c.328.63.5 1.33.5 2.04v39.5h35v-39.5c0-.71.172-1.41.5-2.04l.74-1.46h-37.48zm33.68.54c-.12.491-.181.995-.18 1.5v37.5h-31v-37.5c.001-.505-.06-1.009-.18-1.5zm-77.68-.54c.328.63.5 1.33.5 2.04v39.5h35v-39.5c0-.71.172-1.41.5-2.04l.74-1.46h-37.48zm33.68.54c-.12.491-.181.995-.18 1.5v37.5h-31v-37.5c.001-.505-.06-1.009-.18-1.5zm-77.68-.54c.328.63.5 1.33.5 2.04v39.5h35v-39.5c0-.71.172-1.41.5-2.04l.74-1.46h-37.48zm33.68.54c-.12.491-.181.995-.18 1.5v37.5h-31v-37.5c.001-.505-.06-1.009-.18-1.5zm318.32-.54c.328.63.5 1.33.5 2.04v39.5h35v-39.5c0-.71.172-1.41.5-2.04l.74-1.46h-37.48zm33.68.54c-.12.491-.181.995-.18 1.5v37.5h-31v-37.5c.001-.505-.06-1.009-.18-1.5zm-77.68-.54c.328.63.5 1.33.5 2.04v39.5h35v-39.5c0-.71.172-1.41.5-2.04l.74-1.46h-37.48zm33.68.54c-.12.491-.181.995-.18 1.5v37.5h-31v-37.5c.001-.505-.06-1.009-.18-1.5zm-77.68-.54c.328.63.5 1.33.5 2.04v39.5h35v-39.5c0-.71.172-1.41.5-2.04l.74-1.46h-37.48zm33.68.54c-.12.491-.181.995-.18 1.5v37.5h-31v-37.5c.001-.505-.06-1.009-.18-1.5zm-77.68-.54c.328.63.5 1.33.5 2.04v39.5h35v-39.5c0-.71.172-1.41.5-2.04l.74-1.46h-37.48zm33.68.54c-.12.491-.181.995-.18 1.5v37.5h-31v-37.5c.001-.505-.06-1.009-.18-1.5zm-77.68-.54c.328.63.5 1.33.5 2.04v39.5h35v-39.5c0-.71.172-1.41.5-2.04l.74-1.46h-37.48zm33.68.54c-.12.491-.181.995-.18 1.5v37.5h-31v-37.5c.001-.505-.06-1.009-.18-1.5zm-77.68-.54c.328.63.5 1.33.5 2.04v39.5h35v-39.5c0-.71.172-1.41.5-2.04l.74-1.46h-37.48zm33.68.54c-.12.491-.181.995-.18 1.5v37.5h-31v-37.5c.001-.505-.06-1.009-.18-1.5zm-77.68-.54c.328.63.5 1.33.5 2.04v39.5h35v-39.5c0-.71.172-1.41.5-2.04l.74-1.46h-37.48zm33.68.54c-.12.491-.181.995-.18 1.5v37.5h-31v-37.5c.001-.505-.06-1.009-.18-1.5zm-77.68-.54c.328.63.5 1.33.5 2.04v39.5h35v-39.5c0-.71.172-1.41.5-2.04l.74-1.46h-37.48zm33.68.54c-.12.491-.181.995-.18 1.5v37.5h-31v-37.5c.001-.505-.06-1.009-.18-1.5zm-77.68-.54c.328.63.5 1.33.5 2.04v39.5h35v-39.5c0-.71.172-1.41.5-2.04l.74-1.46h-37.48zm33.68.54c-.12.491-.181.995-.18 1.5v37.5h-31v-37.5c.001-.505-.06-1.009-.18-1.5zm393.82 47h-11.92a11.03 11.03 0 0 0-10.58-8h-6.5v-37.5a6.25 6.25 0 0 0-.45-2.35 5.99 5.99 0 0 0-3.05-11.15h-402a5.99 5.99 0 0 0-3.05 11.15 6.25 6.25 0 0 0-.45 2.35v37.5h-6.5a11.03 11.03 0 0 0-10.58 8h-12.92c-4.967.007-8.993 4.033-9 9v528a9.02 9.02 0 0 0 9 9h468c4.968-.007 8.993-4.032 9-9v-528c-.007-4.967-4.033-8.993-9-9zm7 537c-.003 2.927-1.826 5.543-4.57 6.56-.776.295-1.6.445-2.43.44h-468c-.83.005-1.654-.145-2.43-.44-2.744-1.017-4.566-3.633-4.57-6.56v-528a7.01 7.01 0 0 1 7-7h14.52l.16-.8c.867-4.184 4.547-7.189 8.82-7.2h8.5v-39.5c0-.814.222-1.612.64-2.31l.62-1.03-1.13-.42a3.99 3.99 0 0 1 1.37-7.74h402a3.99 3.99 0 0 1 1.37 7.74l-1.13.42.62 1.03a4.49 4.49 0 0 1 .64 2.31v39.5h8.5a9.03 9.03 0 0 1 8.82 7.2l.16.8h13.52a7.01 7.01 0 0 1 7 7zm-435.24-586l.74 1.46c.328.63.5 1.33.5 2.04v39.5h35v-39.5c0-.71.172-1.41.5-2.04l.74-1.46zm34.24 3.5v37.5h-31v-37.5c.001-.505-.06-1.009-.18-1.5h31.36c-.12.491-.181.995-.18 1.5zm9.76-3.5l.74 1.46c.328.63.5 1.33.5 2.04v39.5h35v-39.5c0-.71.172-1.41.5-2.04l.74-1.46zm34.24 3.5v37.5h-31v-37.5c.001-.505-.06-1.009-.18-1.5h31.36c-.12.491-.181.995-.18 1.5zm9.76-3.5l.74 1.46c.328.63.5 1.33.5 2.04v39.5h35v-39.5c0-.71.172-1.41.5-2.04l.74-1.46zm34.24 3.5v37.5h-31v-37.5c.001-.505-.06-1.009-.18-1.5h31.36c-.12.491-.181.995-.18 1.5zm9.76-3.5l.74 1.46c.328.63.5 1.33.5 2.04v39.5h35v-39.5c0-.71.172-1.41.5-2.04l.74-1.46zm34.24 3.5v37.5h-31v-37.5c.001-.505-.06-1.009-.18-1.5h31.36c-.12.491-.181.995-.18 1.5zm9.76-3.5l.74 1.46c.328.63.5 1.33.5 2.04v39.5h35v-39.5c0-.71.172-1.41.5-2.04l.74-1.46zm34.24 3.5v37.5h-31v-37.5c.001-.505-.06-1.009-.18-1.5h31.36c-.12.491-.181.995-.18 1.5zm9.76-3.5l.74 1.46c.328.63.5 1.33.5 2.04v39.5h35v-39.5c0-.71.172-1.41.5-2.04l.74-1.46zm34.24 3.5v37.5h-31v-37.5c.001-.505-.06-1.009-.18-1.5h31.36c-.12.491-.181.995-.18 1.5zm9.76-3.5l.74 1.46c.328.63.5 1.33.5 2.04v39.5h35v-39.5c0-.71.172-1.41.5-2.04l.74-1.46zm34.24 3.5v37.5h-31v-37.5c.001-.505-.06-1.009-.18-1.5h31.36c-.12.491-.181.995-.18 1.5zm9.76-3.5l.74 1.46c.328.63.5 1.33.5 2.04v39.5h35v-39.5c0-.71.172-1.41.5-2.04l.74-1.46zm34.24 3.5v37.5h-31v-37.5c.001-.505-.06-1.009-.18-1.5h31.36c-.12.491-.181.995-.18 1.5zm9.76-3.5l.74 1.46c.328.63.5 1.33.5 2.04v39.5h35v-39.5c0-.71.172-1.41.5-2.04l.74-1.46zm34.24 3.5v37.5h-31v-37.5c.001-.505-.06-1.009-.18-1.5h31.36c-.12.491-.181.995-.18 1.5zm-386.24-3.5l.74 1.46c.328.63.5 1.33.5 2.04v39.5h35v-39.5c0-.71.172-1.41.5-2.04l.74-1.46zm34.24 3.5v37.5h-31v-37.5c.001-.505-.06-1.009-.18-1.5h31.36c-.12.491-.181.995-.18 1.5zm9.76-3.5l.74 1.46c.328.63.5 1.33.5 2.04v39.5h35v-39.5c0-.71.172-1.41.5-2.04l.74-1.46zm34.24 3.5v37.5h-31v-37.5c.001-.505-.06-1.009-.18-1.5h31.36c-.12.491-.181.995-.18 1.5zm9.76-3.5l.74 1.46c.328.63.5 1.33.5 2.04v39.5h35v-39.5c0-.71.172-1.41.5-2.04l.74-1.46zm34.24 3.5v37.5h-31v-37.5c.001-.505-.06-1.009-.18-1.5h31.36c-.12.491-.181.995-.18 1.5zm9.76-3.5l.74 1.46c.328.63.5 1.33.5 2.04v39.5h35v-39.5c0-.71.172-1.41.5-2.04l.74-1.46zm34.24 3.5v37.5h-31v-37.5c.001-.505-.06-1.009-.18-1.5h31.36c-.12.491-.181.995-.18 1.5zm9.76-3.5l.74 1.46c.328.63.5 1.33.5 2.04v39.5h35v-39.5c0-.71.172-1.41.5-2.04l.74-1.46zm34.24 3.5v37.5h-31v-37.5c.001-.505-.06-1.009-.18-1.5h31.36c-.12.491-.181.995-.18 1.5zm9.76-3.5l.74 1.46c.328.63.5 1.33.5 2.04v39.5h35v-39.5c0-.71.172-1.41.5-2.04l.74-1.46zm34.24 3.5v37.5h-31v-37.5c.001-.505-.06-1.009-.18-1.5h31.36c-.12.491-.181.995-.18 1.5zm9.76-3.5l.74 1.46c.328.63.5 1.33.5 2.04v39.5h35v-39.5c0-.71.172-1.41.5-2.04l.74-1.46zm34.24 3.5v37.5h-31v-37.5c.001-.505-.06-1.009-.18-1.5h31.36c-.12.491-.181.995-.18 1.5zm9.76-3.5l.74 1.46c.328.63.5 1.33.5 2.04v39.5h35v-39.5c0-.71.172-1.41.5-2.04l.74-1.46zm34.24 3.5v37.5h-31v-37.5c.001-.505-.06-1.009-.18-1.5h31.36c-.12.491-.181.995-.18 1.5zm9.76-3.5l.74 1.46c.328.63.5 1.33.5 2.04v39.5h35v-39.5c0-.71.172-1.41.5-2.04l.74-1.46zm34.24 3.5v37.5h-31v-37.5c.001-.505-.06-1.009-.18-1.5h31.36c-.12.491-.181.995-.18 1.5zm-386.24-3.5l.74 1.46c.328.63.5 1.33.5 2.04v39.5h35v-39.5c0-.71.172-1.41.5-2.04l.74-1.46zm34.24 3.5v37.5h-31v-37.5c.001-.505-.06-1.009-.18-1.5h31.36c-.12.491-.181.995-.18 1.5zm9.76-3.5l.74 1.46c.328.63.5 1.33.5 2.04v39.5h35v-39.5c0-.71.172-1.41.5-2.04l.74-1.46zm34.24 3.5v37.5h-31v-37.5c.001-.505-.06-1.009-.18-1.5h31.36c-.12.491-.181.995-.18 1.5zm9.76-3.5l.74 1.46c.328.63.5 1.33.5 2.04v39.5h35v-39.5c0-.71.172-1.41.5-2.04l.74-1.46zm34.24 3.5v37.5h-31v-37.5c.001-.505-.06-1.009-.18-1.5h31.36c-.12.491-.181.995-.18 1.5zm9.76-3.5l.74 1.46c.328.63.5 1.33.5 2.04v39.5h35v-39.5c0-.71.172-1.41.5-2.04l.74-1.46zm34.24 3.5v37.5h-31v-37.5c.001-.505-.06-1.009-.18-1.5h31.36c-.12.491-.181.995-.18 1.5zm9.76-3.5l.74 1.46c.328.63.5 1.33.5 2.04v39.5h35v-39.5c0-.71.172-1.41.5-2.04l.74-1.46zm34.24 3.5v37.5h-31v-37.5c.001-.505-.06-1.009-.18-1.5h31.36c-.12.491-.181.995-.18 1.5zm9.76-3.5l.74 1.46c.328.63.5 1.33.5 2.04v39.5h35v-39.5c0-.71.172-1.41.5-2.04l.74-1.46zm34.24 3.5v37.5h-31v-37.5c.001-.505-.06-1.009-.18-1.5h31.36c-.12.491-.181.995-.18 1.5zm9.76-3.5l.74 1.46c.328.63.5 1.33.5 2.04v39.5h35v-39.5c0-.71.172-1.41.5-2.04l.74-1.46zm34.24 3.5v37.5h-31v-37.5c.001-.505-.06-1.009-.18-1.5h31.36c-.12.491-.181.995-.18 1.5zm9.76-3.5l.74 1.46c.328.63.5 1.33.5 2.04v39.5h35v-39.5c0-.71.172-1.41.5-2.04l.74-1.46zm34.24 3.5v37.5h-31v-37.5c.001-.505-.06-1.009-.18-1.5h31.36c-.12.491-.181.995-.18 1.5zm9.76-3.5l.74 1.46c.328.63.5 1.33.5 2.04v39.5h35v-39.5c0-.71.172-1.41.5-2.04l.74-1.46zm34.24 3.5v37.5h-31v-37.5c.001-.505-.06-1.009-.18-1.5h31.36c-.12.491-.181.995-.18 1.5zm-386.24-3.5l.74 1.46c.328.63.5 1.33.5 2.04v39.5h35v-39.5c0-.71.172-1.41.5-2.04l.74-1.46zm34.24 3.5v37.5h-31v-37.5c.001-.505-.06-1.009-.18-1.5h31.36c-.12.491-.181.995-.18 1.5zm9.76-3.5l.74 1.46c.328.63.5 1.33.5 2.04v39.5h35v-39.5c0-.71.172-1.41.5-2.04l.74-1.46zm34.24 3.5v37.5h-31v-37.5c.001-.505-.06-1.009-.18-1.5h31.36c-.12.491-.181.995-.18 1.5zm9.76-3.5l.74 1.46c.328.63.5 1.33.5 2.04v39.5h35v-39.5c0-.71.172-1.41.5-2.04l.74-1.46zm34.24 3.5v37.5h-31v-37.5c.001-.505-.06-1.009-.18-1.5h31.36c-.12.491-.181.995-.18 1.5zm9.76-3.5l.74 1.46c.328.63.5 1.33.5 2.04v39.5h35v-39.5c0-.71.172-1.41.5-2.04l.74-1.46zm34.24 3.5v37.5h-31v-37.5c.001-.505-.06-1.009-.18-1.5h31.36c-.12.491-.181.995-.18 1.5zm9.76-3.5l.74 1.46c.328.63.5 1.33.5 2.04v39.5h35v-39.5c0-.71.172-1.41.5-2.04l.74-1.46zm34.24 3.5v37.5h-31v-37.5c.001-.505-.06-1.009-.18-1.5h31.36c-.12.491-.181.995-.18 1.5zm9.76-3.5l.74 1.46c.328.63.5 1.33.5 2.04v39.5h35v-39.5c0-.71.172-1.41.5-2.04l.74-1.46zm34.24 3.5v37.5h-31v-37.5c.001-.505-.06-1.009-.18-1.5h31.36c-.12.491-.181.995-.18 1.5zm9.76-3.5l.74 1.46c.328.63.5 1.33.5 2.04v39.5h35v-39.5c0-.71.172-1.41.5-2.04l.74-1.46zm34.24 3.5v37.5h-31v-37.5c.001-.505-.06-1.009-.18-1.5h31.36c-.12.491-.181.995-.18 1.5zm9.76-3.5l.74 1.46c.328.63.5 1.33.5 2.04v39.5h35v-39.5c0-.71.172-1.41.5-2.04l.74-1.46zm34.24 3.5v37.5h-31v-37.5c.001-.505-.06-1.009-.18-1.5h31.36c-.12.491-.181.995-.18 1.5zm9.76-3.5l.74 1.46c.328.63.5 1.33.5 2.04v39.5h35v-39.5c0-.71.172-1.41.5-2.04l.74-1.46zm34.24 3.5v37.5h-31v-37.5c.001-.505-.06-1.009-.18-1.5h31.36c-.12.491-.181.995-.18 1.5z" fill="#3f3d56" vector-effect="non-scaling-stroke"/>
<path d="M447.924 503.718h-73.743c-3.234-.004-5.854-2.624-5.858-5.858v-39.284c.004-3.234 2.624-5.854 5.858-5.858h73.743c3.234.004 5.855 2.624 5.858 5.858v39.284c-.004 3.234-2.624 5.855-5.858 5.858zm112.219 0H486.4c-3.234-.004-5.854-2.624-5.858-5.858v-39.284c.004-3.234 2.624-5.854 5.858-5.858h73.743c3.234.004 5.854 2.624 5.858 5.858v39.284c-.004 3.234-2.624 5.854-5.858 5.858zm112.22 0H598.62c-3.234-.004-5.854-2.624-5.858-5.858v-39.284c.004-3.234 2.624-5.854 5.858-5.858h73.743c3.234.004 5.855 2.624 5.858 5.858v39.284c-.004 3.234-2.624 5.855-5.858 5.858zm-224.439 131h-73.743c-3.234-.004-5.854-2.624-5.858-5.858v-39.284c.004-3.234 2.624-5.854 5.858-5.858h73.743c3.234.004 5.855 2.624 5.858 5.858v39.284c-.004 3.234-2.624 5.855-5.858 5.858zm112.219 0H486.4c-3.234-.004-5.854-2.624-5.858-5.858v-39.284c.004-3.234 2.624-5.854 5.858-5.858h73.743c3.234.004 5.854 2.624 5.858 5.858v39.284c-.004 3.234-2.624 5.854-5.858 5.858zm112.22 0H598.62c-3.234-.004-5.854-2.624-5.858-5.858v-39.284c.004-3.234 2.624-5.854 5.858-5.858h73.743c3.234.004 5.855 2.624 5.858 5.858v39.284c-.004 3.234-2.624 5.855-5.858 5.858zm-224.439 131h-73.743c-3.234-.004-5.854-2.624-5.858-5.858v-39.284c.004-3.234 2.624-5.854 5.858-5.858h73.743c3.234.004 5.855 2.624 5.858 5.858v39.284c-.004 3.234-2.624 5.855-5.858 5.858zm112.219 0H486.4c-3.234-.004-5.854-2.624-5.858-5.858v-39.284c.004-3.234 2.624-5.854 5.858-5.858h73.743c3.234.004 5.854 2.624 5.858 5.858v39.284c-.004 3.234-2.624 5.854-5.858 5.858zm112.22 0H598.62c-3.234-.004-5.854-2.624-5.858-5.858v-39.284c.004-3.234 2.624-5.854 5.858-5.858h73.743c3.234.004 5.855 2.624 5.858 5.858v39.284c-.004 3.234-2.624 5.855-5.858 5.858z" fill="#00bfa6" vector-effect="non-scaling-stroke"/>
<g fill="#3f3d56">
<path d="M435.985 508.759h-85.427c-4.298-.005-7.781-3.488-7.786-7.787v-45.508a7.8 7.8 0 0 1 7.786-7.787h85.427c4.298.005 7.782 3.488 7.786 7.787v45.508a7.8 7.8 0 0 1-7.786 7.787zm-85.427-59.081c-3.194.004-5.783 2.592-5.786 5.787v45.508c.003 3.194 2.592 5.783 5.786 5.787h85.427c3.194-.004 5.783-2.592 5.786-5.787v-45.508c-.003-3.194-2.592-5.783-5.786-5.787zm215.427 59.081h-85.427c-4.298-.005-7.782-3.488-7.786-7.787v-45.508a7.8 7.8 0 0 1 7.786-7.787h85.427c4.298.005 7.782 3.488 7.786 7.787v45.508a7.8 7.8 0 0 1-7.786 7.787zm-85.427-59.081c-3.194.004-5.783 2.592-5.786 5.787v45.508c.003 3.194 2.592 5.783 5.786 5.787h85.427c3.194-.004 5.783-2.592 5.786-5.787v-45.508c-.003-3.194-2.592-5.783-5.786-5.787zm215.427 59.081h-85.427c-4.298-.005-7.782-3.488-7.786-7.787v-45.508a7.8 7.8 0 0 1 7.786-7.787h85.427c4.298.005 7.782 3.488 7.786 7.787v45.508a7.8 7.8 0 0 1-7.786 7.787zm-85.427-59.081c-3.194.004-5.783 2.592-5.786 5.787v45.508c.003 3.194 2.592 5.783 5.786 5.787h85.427c3.194-.004 5.783-2.592 5.786-5.787v-45.508c-.003-3.194-2.592-5.783-5.786-5.787zM435.985 639.759h-85.427c-4.298-.005-7.781-3.488-7.786-7.787v-45.508a7.8 7.8 0 0 1 7.786-7.787h85.427c4.298.005 7.782 3.488 7.786 7.787v45.508a7.8 7.8 0 0 1-7.786 7.787zm-85.427-59.081c-3.194.004-5.783 2.592-5.786 5.787v45.508c.003 3.194 2.592 5.783 5.786 5.787h85.427c3.194-.004 5.783-2.592 5.786-5.787v-45.508c-.003-3.194-2.592-5.783-5.786-5.787zm215.427 59.081h-85.427c-4.298-.005-7.782-3.488-7.786-7.787v-45.508a7.8 7.8 0 0 1 7.786-7.787h85.427c4.298.005 7.782 3.488 7.786 7.787v45.508a7.8 7.8 0 0 1-7.786 7.787zm-85.427-59.081c-3.194.004-5.783 2.592-5.786 5.787v45.508c.003 3.194 2.592 5.783 5.786 5.787h85.427c3.194-.004 5.783-2.592 5.786-5.787v-45.508c-.003-3.194-2.592-5.783-5.786-5.787zm215.427 59.081h-85.427c-4.298-.005-7.782-3.488-7.786-7.787v-45.508a7.8 7.8 0 0 1 7.786-7.787h85.427c4.298.005 7.782 3.488 7.786 7.787v45.508a7.8 7.8 0 0 1-7.786 7.787zm-85.427-59.081c-3.194.004-5.783 2.592-5.786 5.787v45.508c.003 3.194 2.592 5.783 5.786 5.787h85.427c3.194-.004 5.783-2.592 5.786-5.787v-45.508c-.003-3.194-2.592-5.783-5.786-5.787zM435.985 770.759h-85.427c-4.298-.005-7.781-3.488-7.786-7.787v-45.508a7.8 7.8 0 0 1 7.786-7.787h85.427c4.298.005 7.782 3.488 7.786 7.787v45.508a7.8 7.8 0 0 1-7.786 7.787zm-85.427-59.081c-3.194.004-5.783 2.592-5.786 5.787v45.508c.003 3.194 2.592 5.783 5.786 5.787h85.427c3.194-.004 5.783-2.592 5.786-5.787v-45.508c-.003-3.194-2.592-5.783-5.786-5.787zm215.427 59.081h-85.427c-4.298-.005-7.782-3.488-7.786-7.787v-45.508a7.8 7.8 0 0 1 7.786-7.787h85.427c4.298.005 7.782 3.488 7.786 7.787v45.508a7.8 7.8 0 0 1-7.786 7.787zm-85.427-59.081c-3.194.004-5.783 2.592-5.786 5.787v45.508c.003 3.194 2.592 5.783 5.786 5.787h85.427c3.194-.004 5.783-2.592 5.786-5.787v-45.508c-.003-3.194-2.592-5.783-5.786-5.787zm215.427 59.081h-85.427c-4.298-.005-7.782-3.488-7.786-7.787v-45.508a7.8 7.8 0 0 1 7.786-7.787h85.427c4.298.005 7.782 3.488 7.786 7.787v45.508a7.8 7.8 0 0 1-7.786 7.787zm-85.427-59.081c-3.194.004-5.783 2.592-5.786 5.787v45.508c.003 3.194 2.592 5.783 5.786 5.787h85.427c3.194-.004 5.783-2.592 5.786-5.787v-45.508c-.003-3.194-2.592-5.783-5.786-5.787zM1044 925.218H36a1 1 0 1 1 0-2h1008a1 1 0 1 1 0 2z" vector-effect="non-scaling-stroke"/>
<path d="m573.77 828.43a8.61 8.61 0 0 0-8.5-8.71h-42v103.5h50.5z" vector-effect="non-scaling-stroke"/>
<path d="m524.27 922.22h-52.5v-93.5c6e-3 -5.244 4.256-9.494 9.5-9.5h43zm-50.5-2h48.5v-99h-41a7.51 7.51 0 0 0-7.5 7.5z" vector-effect="non-scaling-stroke"/>
<circle cx="478.27" cy="874.72" r="3" vector-effect="non-scaling-stroke"/>
</g>
<g fill="none" stroke="#f2f2f2" stroke-linecap="round" stroke-linejoin="round" stroke-miterlimit="10" stroke-width="11.7">
<path d="M-.017 723.63h.023" vector-effect="non-scaling-stroke"/>
<path d="m-0.01 723.63h0.023m-0.027-0.752h0.024m-0.023-1.504h0.023m-3.025-722.51q0.012 0 0.012 0.376t0.376 0.376 3.008 0.752l2.644 0.764m-3.041 724.75h0.023m1.868-719.49q0.012-0.012 0.012-0.388t0.376-0.752 2.632-0.752 4.512-0.752 2.632-0.376 0.752 0 0.752 0 0.752 0 1.504 0 1.504 0 0.752-0.376 0.752-0.376 0.376-0.376 0.376-0.376 0.376-0.752 0-1.128-0.752-0.752-1.128-0.376-1.504 0-1.504 0-0.752 0-1.128 0-1.504-0.376-1.128-0.376-1.128 0-1.128 0-1.128 0-1.128 0-1.128 0-1.128 0-1.128 0-1.504 0-1.504 0-1.88 0-1.88 0-1.128 0-0.376-0.376-0.752-0.376-1.128-0.376-0.752-0.376 0 0 0.752 0 0.752 0 0.752 0 0.752 0 1.504 0 1.88 0 1.128 0 1.128 0 1.504 0 1.88-0.376 1.88-0.376 1.128 0 0.752-0.376 0.752-0.376 0.752 0 0.752 0 0.752 0 0.752 0 0.752 0 0.752 0 1.128 0 1.128-0.376 0-0.376-0.752-0.376-0.752-0.376-1.128 0-1.504 0-2.256 0-1.88 0-0.752 0-1.504 0-1.504 0-0.752 0-1.504 0-1.504 0-0.752 0-0.752 0-0.752 0-0.752 0-1.128 0-1.128 0-1.128 0-1.128 0-1.128 0-2.256 0-2.632 0-2.256 0-2.256 0h-1.14" vector-effect="non-scaling-stroke"/>
</g>
<path d="m358.48 582.28h83.158v52.425h-83.158zm121.08 0.625h87.656v53.974h-87.656zm125.78-0.199h77.168v52.032h-77.168zm-13.2-2.345h11.987v54.362h-11.987zm-148.56-0.242h11.987v64.846h-11.987zm161 133.08h78.666v53.974h-78.666zm-15.664-2.141h14.235v55.915h-14.235zm-110.64 3.334h87.656v52.809h-87.656zm-119.98 0.294h83.161v52.42h-83.161zm85.177-2.111h11.987v59.022h-11.987z" fill="#f2f2f2" vector-effect="non-scaling-stroke"/>
</svg>
